<?xml version="1.0" encoding="utf-8"?>
<!-- Svg Vector Icons : http://www.onlinewebfonts.com/icon -->
<!DOCTYPE svg PUBLIC "-//W3C//DTD SVG 1.1//EN" "http://www.w3.org/Graphics/SVG/1.1/DTD/svg11.dtd">
<svg version="1.1" xmlns="http://www.w3.org/2000/svg" xmlns:xlink="http://www.w3.org/1999/xlink" x="0px" y="0px" viewBox="0 0 1000 1000" enable-background="new 0 0 1000 1000" xml:space="preserve">
<metadata> Svg Vector Icons : http://www.onlinewebfonts.com/icon </metadata>
<g><g transform="translate(0.000000,511.000000) scale(0.100000,-0.100000)"><path d="M2812.8,4693.9c-55.3-31.6-120.5-85-142.3-116.6c-104.7-144.2-100.8-77.1-100.8-2165.5V471.6L2388,459.7c-304.3-19.8-531.5-90.9-871.3-266.7c-166-86.9-499.9-256.9-744.9-381.3c-245-122.5-470.2-241.1-499.9-262.8c-31.6-23.7-81-81-108.7-130.4l-53.3-88.9L104-2415.1l-4-1742.7l41.5-98.8c45.4-106.7,144.2-205.5,247-248.9c53.3-23.7,341.8-27.7,1602.4-27.7c1462.1,0,1541.1,2,1616.2,37.5c43.5,21.7,231.2,167.9,414.9,328c699.4,604.6,725.1,634.2,810.1,904.9l49.4,154.1v1511.5V-87.6H5000h118.6V-1601v-1511.5l49.4-150.2c67.2-201.5,156.1-330,328-484.1c450.5-401.1,827.9-715.2,897-748.8c75.1-35.6,154.1-37.5,1616.2-37.5c1260.6,0,1549,4,1602.4,27.7c102.7,43.5,201.5,142.2,247,248.9l41.5,98.8l-4,1742.7c-5.9,1932.3,4,1792.1-134.4,1930.4c-35.6,33.6-286.5,173.9-598.7,329.9c-296.4,148.2-636.2,322.1-758.7,387.3C8149.4,366.9,7894.6,440,7614,459.7l-183.7,11.8v1940.2c0,2088.4,4,2021.2-100.8,2165.5c-21.7,31.6-86.9,85-142.3,116.6l-102.8,59.3H5000H2915.5L2812.8,4693.9z M7035.1,4446.9c31.6-15.8,67.2-47.4,79-67.2c29.6-57.3,27.7-4014.8-2-4080C7058.8,185.1,7135.8,189,5023.7,189c-1065,0-1962,5.9-1997.5,11.9c-33.6,7.9-83,35.6-110.6,63.2l-49.4,49.4v2013.4c0,1337.6,5.9,2027.2,19.8,2050.9c53.3,100.8-15.8,96.8,2110.2,98.8C6726.9,4476.5,6985.7,4472.6,7035.1,4446.9z M2692.3,80.4c140.3-160,128.4-156.1,796.2-167.9l592.7-9.9L3856-249.6c-199.6-134.3-231.2-150.2-266.7-128.4c-29.6,17.8-363.5,25.7-1246.7,33.6l-1205.2,9.9L1522.6-133c464.3,243,626.3,294.4,936.5,300.3l154.1,2L2692.3,80.4z M7924.2,117.9c73.1-17.8,302.3-122.5,533.5-243l405-209.4l-1205.2-9.9c-883.2-7.9-1217.1-15.8-1246.7-33.6c-35.6-21.7-67.2-5.9-266.7,128.4L5918.7-97.5l592.7,9.9c669.8,11.8,659.9,9.9,794.3,167.9l75.1,90.9l207.5-9.9C7702.9,157.4,7853.1,137.7,7924.2,117.9z M4545.6-3201.4c-53.4-154.1-104.7-215.4-391.2-462.3l-250.9-215.4l-11.9,1584.6c-5.9,871.3-17.8,1608.3-25.7,1637.9c-15.8,51.4-5.9,61.2,345.8,290.4l363.5,237.1l5.9-1479.9C4585.1-3039.4,4583.1-3094.8,4545.6-3201.4z M5808.1-380c329.9-215.4,341.8-225.2,326-276.6c-7.9-29.6-19.8-766.6-25.7-1639.9l-11.8-1584.6l-258.8,225.3c-288.5,250.9-330,300.3-385.3,456.4c-35.6,102.7-37.5,179.8-37.5,1590.5c0,1181.5,5.9,1481.8,25.7,1470C5452.5-148.8,5618.4-255.5,5808.1-380z M3545.8-702.1l51.4-61.3v-1677.5v-1677.5l-57.3-63.2l-57.3-65.2H1986.9H491.2l-47.4,55.3l-47.4,55.3v1693.3c2,1300.1,5.9,1701.2,25.7,1724.9c59.3,75.1,63.2,75.1,1588.6,77.1h1483.8L3545.8-702.1z M9510.8-664.5c94.8-49.4,90.9,11.9,92.9-1774.3c0-1845.4,5.9-1746.6-112.6-1796c-41.5-15.8-444.6-21.7-1513.5-17.8l-1460.1,5.9l-57.3,65.2l-57.3,63.2v1677.5v1677.5l51.4,61.3l51.4,61.3h1481.9C9074.1-640.8,9479.2-646.7,9510.8-664.5z"/><path d="M4033.8,2384.2c-294.4-703.4-535.4-1286.3-535.4-1294.2c0-5.9,203.5-11.9,450.5-11.9h452.5l67.2,173.9l69.2,171.9l454.4,5.9l454.4,4l65.2-177.8l67.2-177.8h462.3c252.9,0,460.4,5.9,460.4,11.9c0,5.9-241,588.8-535.4,1294.2l-537.4,1282.3H5000h-428.8L4033.8,2384.2z M5110.6,2360.4c57.3-156.1,106.7-290.4,106.7-298.3c0-9.9-102.8-15.8-229.2-15.8c-175.8,0-227.2,5.9-219.3,25.7c4,11.9,55.3,150.2,112.6,306.3c57.3,154.1,108.7,276.6,112.6,272.7C4998,2646.9,5051.4,2514.6,5110.6,2360.4z"/><path d="M890.3-2448.7v-1179.6l776.5,7.9c833.8,9.9,885.2,15.8,1098.5,122.5c128.4,65.2,264.8,221.3,300.3,341.8c43.5,148.2,31.6,335.9-27.7,452.5c-27.7,53.3-71.1,116.6-96.8,140.3c-53.3,49.4-268.7,164-312.2,164c-15.8,0,19.8,27.7,79,61.3c223.3,122.5,306.3,254.9,304.3,492c0,126.5-7.9,164-57.3,254.9c-63.2,116.6-166,201.5-322.1,268.7c-86.9,37.5-144.2,39.5-916.8,45.4l-825.9,5.9V-2448.7z M2158.8-1885.6c112.6-53.3,116.6-223.3,5.9-272.7c-67.2-29.6-324-51.4-432.7-35.6l-90.9,13.8v154.1c0,85,5.9,160,15.8,167.9C1678.7-1834.2,2099.5-1855.9,2158.8-1885.6z M2227.9-2715.4c120.5-73.1,104.7-211.4-33.6-282.5c-57.3-27.7-110.6-33.6-306.2-29.6l-237.1,5.9l-5.9,173.9l-5.9,171.9h262.8C2129.2-2675.9,2172.6-2681.8,2227.9-2715.4z"/><path d="M7831.3-1235.5c-420.8-71.1-802.2-401.1-936.5-810.1c-39.5-124.5-47.4-183.8-47.4-403.1c0-217.3,7.9-278.6,47.4-401.1c126.4-383.3,450.5-679.7,861.4-784.4c270.7-69.2,657.9-21.7,920.7,110.6c136.3,67.2,373.4,290.4,446.5,416.9l41.5,71.1l-318.1,179.8l-320.1,179.8l-49.4-63.2c-90.9-118.5-167.9-175.8-274.6-205.5c-308.2-90.9-575,144.2-575,505.8c0,298.3,187.7,513.7,448.5,513.7c179.8-2,284.5-63.2,401.1-233.1c29.6-43.5,29.6-43.5,349.7,146.2l322.1,189.7l-35.6,61.2c-17.8,33.6-96.8,126.5-173.9,205.5c-160,164-341.8,262.8-571,312.2C8218.6-1211.8,7993.3-1207.9,7831.3-1235.5z"/></g></g>
</svg>