<?xml version="1.0" standalone="no"?>
<!DOCTYPE svg PUBLIC "-//W3C//DTD SVG 1.1//EN" "http://www.w3.org/Graphics/SVG/1.1/DTD/svg11.dtd" >
<svg xmlns="http://www.w3.org/2000/svg" xmlns:xlink="http://www.w3.org/1999/xlink" version="1.1">
<metadata></metadata>
<defs>
<font id="mamaequenosfazregular" horiz-adv-x="1000" >
<font-face units-per-em="2048" ascent="1636" descent="-412" />
<missing-glyph horiz-adv-x="720" />
<glyph horiz-adv-x="0" />
<glyph unicode="&#xd;" horiz-adv-x="2048" />
<glyph unicode=" "  horiz-adv-x="720" />
<glyph unicode="&#x09;" horiz-adv-x="720" />
<glyph unicode="&#xa0;" horiz-adv-x="720" />
<glyph unicode="!" horiz-adv-x="800" d="M256 284v980q0 40 44 40q40 0 40 -40v-980q0 -44 -40 -44q-44 0 -44 44zM264 36q0 36 36 36t36 -36q0 -32 -36 -32t-36 32z" />
<glyph unicode="&#x22;" horiz-adv-x="800" d="M284 852v4v2v2q0 60 60 60t60 -60v-1v-3v-4q0 -44 -32 -56v-14v-10q0 -28 -4 -58t-20 -54q-8 -24 -32 -4q-24 8 -8 32q12 24 12 84v10v14q-36 12 -36 56zM428 860q0 60 60 60q64 0 64 -60q0 -36 -36 -56v-16v-16q4 -72 -20 -112q-16 -20 -36 -4q-24 8 -8 32t16 84v32 q-40 12 -40 56z" />
<glyph unicode="#" d="M40 248q0 36 36 36h42h106q12 52 28 110t32 114h-144h-60q-36 0 -36 40q0 36 40 36l62 -2q62 -2 158 -2q40 152 40 160q4 32 48 24q36 -8 24 -44l-12 -40t-24 -100h102h102q16 68 28 114l12 46q12 36 48 24q28 -8 24 -44l-12 -40q-12 -40 -24 -100q124 0 132 4 q40 0 40 -32q4 -40 -32 -44h-56h-104q-16 -56 -32 -114t-28 -110h140h64q36 4 44 -28q4 -40 -28 -44q-12 -4 -80 -4h-160q-20 -72 -32 -120t-12 -56q-8 -32 -44 -28t-28 40q0 24 40 164h-104h-100q-20 -72 -34 -120t-14 -60q-16 -28 -48 -24q-32 12 -24 48q0 8 12 52t32 104 q-60 0 -94 2l-34 2q-36 0 -36 36zM300 284h100h104q12 52 28 110t32 114h-102h-102q-16 -56 -32 -114t-28 -110z" />
<glyph unicode="$" horiz-adv-x="880" d="M16 328q-16 48 32 64q48 12 64 -36q24 -88 64 -140q44 -60 112 -92q12 -12 30 -16t42 -8v540q-60 16 -112 38t-88 58q-60 48 -90 110t-14 158q12 100 74 166t150 98q24 8 72 16h2h6v88q0 48 48 48t48 -48v-84q148 -20 240 -148q20 -28 40 -64q12 -24 28 -72v-2q0 -2 4 -2 q12 -52 -32 -64q-52 -16 -64 32v4v4q-16 40 -24 56q-8 12 -16 26t-12 26q-64 80 -164 104v-480q36 -12 108 -44q68 -36 112 -68q8 -12 16 -18t20 -14q88 -88 88 -208q0 -128 -76 -212q-12 -24 -36 -40v-4q-24 -24 -52 -40q-28 -24 -56 -32q-32 -12 -62 -20t-62 -8v-80 q0 -48 -48 -48t-48 48v84q-60 4 -116 32q-84 36 -148 124q-48 60 -80 168zM152 988q-16 -104 68 -172q24 -24 62 -42t78 -30v440q-24 0 -48 -12q-144 -44 -160 -180v-4zM456 100q56 4 84 20q32 16 44 24q24 16 32 24l2 2l2 2q20 20 28 32q56 68 52 152q0 80 -60 140 q-8 4 -14 10t-10 14q-52 32 -96 56q-40 16 -64 28v-504z" />
<glyph unicode="%" horiz-adv-x="1240" d="M224 76l800 1380q20 40 68 20q44 -24 16 -68l-796 -1380q-20 -36 -68 -20q-44 24 -20 68zM268 1304q0 52 38 90t90 38t92 -38t40 -90q0 -56 -40 -92t-92 -36t-90 36t-38 92zM788 180q0 52 38 92t94 40q52 0 90 -40t38 -92q0 -128 -128 -128q-56 0 -94 36t-38 92z" />
<glyph unicode="&#x26;" horiz-adv-x="1216" d="M20 528q8 40 16 64q44 132 156 250t232 230q56 48 80 76q-16 64 -28 100v2v2q-24 120 16 192q40 68 140 64h4h8q40 -16 52 -24q44 -32 56 -72q8 -36 -4 -88q-12 -36 -44 -88q-4 -4 -4 -8q-52 -56 -104 -104q36 -132 84 -246t100 -210l2 2l2 2q104 60 252 8l4 -2l4 -2 q96 -64 124 -184q8 -60 -4 -136q-24 -72 -68 -140q24 -36 62 -76t94 -52q28 -12 32 -6t24 -2q32 -24 20 -56q-12 -24 -48 -22t-56 10q-60 16 -106 60t-70 80q-48 -56 -106 -82t-146 -42h-2h-2q-52 -8 -104 -12t-100 -4q-120 0 -204 20q-44 4 -72 16q-164 52 -244 188 q-76 128 -48 292zM100 512q-28 -132 40 -232q64 -112 196 -152q20 -12 64 -16q100 -20 188 -20q48 0 96 4t96 12h4q72 12 118 32t86 64q-56 48 -96 122t-88 146q-12 20 -44 68q-24 -36 -52 -104q-24 -36 -56 -24q-44 16 -20 52q28 92 84 152q-112 208 -184 444 q-12 -12 -26 -24t-26 -24q-116 -108 -224 -218t-144 -230q-4 -12 -8 -26t-4 -26zM556 1268q0 -16 6 -30t10 -26q16 16 32 34t32 34q28 48 32 68q12 24 4 40t-20 28q-16 8 -28 12q-52 0 -60 -28q-28 -40 -8 -132zM820 600q12 -24 26 -44t26 -40q40 -64 78 -130t86 -114l24 48 t24 52q12 52 0 104q-16 76 -80 128q-104 40 -180 -4h-2h-2z" />
<glyph unicode="'" horiz-adv-x="800" d="M284 860q0 28 16 44q20 20 44 20t44 -20t20 -44t-20 -44q-4 -4 -10 -8l-6 -4v-18v-14q0 -28 -2 -58t-18 -54q-16 -20 -36 -4q-24 8 -8 32q12 16 12 38v46v14v18q-8 0 -12 4l-8 8q-16 16 -16 44z" />
<glyph unicode="(" horiz-adv-x="800" d="M4 652v4v18v22q4 12 4 40q12 104 48 200v4q16 40 44 92q20 40 60 88q84 104 214 172t310 76q20 0 32 -12q16 -16 16 -36q0 -24 -12 -36q-16 -16 -32 -16h-4q-60 0 -112 -12q-60 -16 -104 -28q-120 -48 -200 -134t-116 -194q-4 -12 -8 -18t-4 -14q-4 -12 -8 -20t-4 -16 q-20 -72 -20 -176v-20v-16q0 -12 2 -20t2 -16q8 -88 48 -172q8 -20 14 -40t18 -36q16 -32 52 -68q72 -84 182 -134t258 -46q20 0 32 -16q16 -12 16 -32v-2v-2q0 -20 -12 -32q-24 -12 -32 -12h-2h-2q-48 0 -128 8q-60 4 -112 24q-140 44 -236 136t-144 212v4q-4 8 -10 16 t-6 20l-8 16t-4 20q-28 84 -32 204z" />
<glyph unicode=")" d="M156 36v2v2q8 24 16 32q16 16 32 16q148 -4 260 46t184 134q20 20 52 68q8 16 14 34t18 42q28 64 44 172q4 8 4 32t4 36q0 88 -24 180q0 16 -8 32l-8 16t-4 20q-44 108 -122 192t-198 132q-64 24 -100 28q-56 12 -116 12v4q-20 0 -32 12q-16 24 -16 36q4 24 16 36t32 12 h4q176 -8 306 -74t218 -170q28 -40 56 -88l24 -48l24 -48q36 -104 44 -200q4 -16 4 -44v-20v-20q0 -104 -32 -204q-8 -24 -12 -40q-8 -24 -16 -36q-52 -120 -146 -212t-234 -136q-48 -20 -112 -24q-32 0 -62 -4t-66 -4q-8 0 -32 12q-8 8 -16 32z" />
<glyph unicode="*" horiz-adv-x="1120" d="M196 1256q20 44 68 16l268 -156v312q0 48 48 48t48 -48v-312l272 156q40 28 64 -16q28 -48 -16 -68l-288 -168l236 -232q36 -36 0 -72q-36 -32 -72 0l-244 248l-244 -248q-40 -32 -68 0q-36 36 0 72l232 232l-288 168q-40 20 -16 68z" />
<glyph unicode="+" horiz-adv-x="1520" d="M100 664q0 40 40 40h576v576q0 44 40 44t40 -44v-576h576q44 0 44 -40t-44 -40h-576v-576q0 -40 -40 -40t-40 40v576h-576q-40 0 -40 40z" />
<glyph unicode="," horiz-adv-x="600" d="M264 -76q-16 24 8 36t40 44v4v4v4q-28 20 -28 56q0 72 68 72q72 0 72 -72q0 -64 -60 -68q0 -4 -2 -4t-2 -8q-16 -48 -64 -80q-28 -8 -32 12z" />
<glyph unicode="-" horiz-adv-x="880" d="M172 408q0 40 36 40h500q36 0 36 -40t-36 -40h-500q-36 0 -36 40z" />
<glyph unicode="." horiz-adv-x="600" d="M284 72q0 72 68 72q72 0 72 -72q0 -68 -72 -68q-68 0 -68 68z" />
<glyph unicode="/" d="M144 28q0 28 8 40l720 1252q8 16 32 24q12 4 40 -4q16 -12 24 -32q4 -24 -4 -40l-724 -1252q-16 -20 -32 -20q-20 -4 -40 4q-20 4 -24 28z" />
<glyph unicode="0" horiz-adv-x="1040" d="M92 680q0 280 124 476q128 208 316 208t320 -208q124 -196 124 -476q0 -276 -124 -476q-128 -204 -320 -204t-316 204q-124 200 -124 476zM180 680q0 -252 112 -428q100 -168 240 -168t244 168q112 176 112 428q0 248 -112 428q-104 168 -244 168t-240 -168 q-112 -180 -112 -428z" />
<glyph unicode="1" d="M252 40q0 44 44 44q52 0 112 2t120 2q-12 144 -14 290t-2 298q0 256 12 528q-32 -32 -48 -44q-40 -32 -78 -60t-78 -52q-40 -20 -64 16q-20 36 16 64q36 20 74 46t74 54q56 44 124 120q28 28 64 4q16 -24 12 -36q-12 -168 -16 -326t-4 -314q0 -152 4 -298t12 -290 q16 0 24 -4q36 0 80 -2t80 -2q44 0 44 -44q0 -40 -44 -40h-4q-40 0 -82 2t-82 2h-174h-158q-44 0 -48 40z" />
<glyph unicode="2" d="M96 1096q20 28 68 76q112 116 260 164q72 16 148 8t144 -56q24 -24 40 -36q8 -12 28 -32q96 -128 64 -276q-32 -132 -144 -244q-16 -16 -32 -30t-28 -26q-40 -32 -84 -60t-84 -52q-128 -80 -222 -172t-42 -268q32 0 68 4l72 8q152 12 292 14t232 -34q36 -24 20 -60 q-16 -32 -60 -20q-72 28 -202 26t-274 -14q-44 -8 -88 -12t-88 -4q-36 0 -48 32q-88 240 24 360t268 216q96 52 160 108q12 12 26 24t26 24q96 96 120 200t-44 200q-8 4 -14 10t-10 14q-12 4 -18 12t-14 16q-96 60 -212 32q-112 -28 -220 -136q-36 -36 -60 -72 q-32 -40 -64 -8q-40 28 -8 64z" />
<glyph unicode="3" d="M160 204q-24 36 16 56q32 24 56 -12l16 -24q76 -116 204 -140q112 -20 224 40l6 4t10 8q140 96 128 252q0 16 -8 56q-4 12 -20 56q-68 132 -212 172q-16 0 -32 4t-28 8h-32h-32q-44 0 -48 36q-8 44 36 52q8 0 40 8q68 8 132 24t104 52h2h2q56 48 76 116q12 52 0 108 q-16 48 -52 96q-52 52 -128 80q-144 36 -272 -48q-12 -12 -22 -20t-22 -20q-24 -24 -36 -40h-4q-24 -40 -60 -8q-40 20 -8 60h4q12 24 48 52q32 32 52 44q168 108 340 64q104 -36 172 -108q52 -60 72 -132q16 -76 0 -152q-28 -88 -100 -156h-4v-2v-2q-56 -40 -108 -56 q128 -60 196 -192q0 -4 2 -4h2q16 -48 24 -68q4 -28 12 -76q12 -208 -164 -328q-8 -4 -14 -8t-10 -4q-128 -76 -280 -52q-160 24 -264 172q-4 8 -10 14t-6 18z" />
<glyph unicode="4" horiz-adv-x="880" d="M224 572v2v2q4 108 10 196t10 172q0 84 -2 172t-2 200q0 44 44 44q48 0 48 -44q4 -212 0 -376q-4 -80 -8 -158t-8 -170q48 -4 94 -6t90 -2q40 -4 86 -2t94 6v146t4 138v78t4 82v120t4 120q0 44 44 44t44 -44q0 -108 -2 -196t-2 -172l-4 -36q-4 -212 -2 -420t18 -416 q8 -48 -40 -48q-48 -8 -48 40q-12 120 -16 236t-4 236q-48 0 -92 -2t-88 -2q-60 0 -116 2t-120 10q-40 4 -40 48z" />
<glyph unicode="5" horiz-adv-x="1040" d="M140 164q-36 24 0 60q28 32 64 0q128 -136 288 -136q68 4 124 28q72 36 112 76q136 128 136 348q-8 140 -60 220q-52 72 -132 92q-80 24 -176 -8q-148 -44 -264 -184q-16 -16 -36 -16q-44 0 -44 48l8 180q4 80 8 158t8 162q0 28 -4 44q-4 20 -4 56q0 48 44 48q20 0 60 -8 q12 0 22 -2t22 -2h500q20 0 28 4v-4q12 36 56 24q36 -16 24 -56t-56 -52q-20 -4 -52 -4h-500q-36 0 -56 4q4 -40 4 -56q-4 -84 -8 -162t-4 -158l-4 -64q96 84 220 124q116 36 228 12q116 -36 184 -128q64 -104 72 -272q4 -256 -164 -412q-68 -68 -136 -92q-72 -36 -156 -36 q-200 0 -356 164zM840 1324q0 -4 2 2l2 6v-4q-4 0 -4 -4z" />
<glyph unicode="6" d="M124 460q-4 168 56 324q12 28 24 58t28 58q28 60 60 108q68 108 134 186t110 122l14 14l14 14q24 16 32 16q40 12 56 -28q12 -44 -28 -56v-2v-2q-8 -4 -24 -20q-44 -40 -106 -116t-126 -176q-40 -64 -56 -100q-16 -32 -48 -104v-4q112 64 220 84q24 4 72 4t72 -4 q80 -12 144 -56q88 -64 136 -188q32 -124 12 -232q-20 -116 -76 -200q-44 -56 -92 -88q-96 -68 -220 -72q-124 0 -216 64q-48 28 -84 84q-104 144 -108 312zM224 396q16 -104 80 -200q28 -36 60 -60q72 -52 168 -44q88 0 168 52q48 32 68 68q52 76 64 164q16 100 -12 188 q-24 84 -100 144q-40 24 -104 40h-4q-16 4 -52 4q-40 0 -60 -4q-164 -28 -276 -140q-16 -108 0 -212z" />
<glyph unicode="7" horiz-adv-x="1040" d="M44 1332q0 44 48 44q108 -8 214 -14t214 -6h214h214q44 0 44 -44q0 -16 -8 -24q0 -4 -4 -12q-56 -80 -96 -168q-24 -48 -44 -92t-36 -92q-88 -240 -120 -482t-32 -402q0 -40 -44 -40t-44 40q0 168 32 416t124 500q36 104 80 192q12 28 30 58t38 62q-180 -8 -348 0 q-112 0 -220 4t-216 12q-40 4 -40 48z" />
<glyph unicode="8" horiz-adv-x="1080" d="M208 320q-20 116 56 216q8 16 20 28q40 44 88 74t96 54q-88 40 -128 100q-92 108 -68 252q0 16 8 48q0 12 6 22t10 22q48 124 192 180q64 20 124 20q68 0 128 -24q124 -56 172 -184q48 -136 -32 -276q-12 -20 -28 -44q-12 -12 -20 -22t-20 -18q-40 -36 -92 -60 q84 -24 160 -66t124 -138q12 -40 20 -68q8 -40 8 -68q0 -88 -42 -174t-126 -134v-4q-16 -12 -34 -18t-34 -14t-34 -12t-34 -8q-96 -12 -194 0t-170 72q-24 16 -40 32q-104 88 -116 212zM296 332q12 -92 88 -160q8 -8 16 -14t20 -10q116 -92 288 -56q40 8 56 16q28 12 52 28 q132 76 128 232q0 16 -8 48t-16 48q-36 84 -114 116t-162 56q-12 0 -26 4t-26 8h-4q-64 -28 -126 -60t-110 -84q-12 -12 -16 -20q-56 -72 -40 -152zM360 1032q-16 -104 52 -184q32 -44 78 -68t98 -36q100 40 168 92q8 12 24 28q4 8 10 14t14 18q60 104 24 204 q-40 96 -124 128q-48 20 -92 20q-36 0 -92 -16q-108 -40 -140 -128q-4 -12 -8 -20t-4 -16q-4 -12 -6 -20t-2 -16z" />
<glyph unicode="9" horiz-adv-x="1040" d="M100 988q12 156 140 272h4v4q24 16 50 32t54 32q132 56 268 32q140 -28 236 -136q32 -40 60 -92q20 -52 40 -116q28 -140 0 -290t-100 -282t-178 -242t-234 -166q-56 -24 -120 -36q-48 -4 -52 32q-8 44 36 52q56 12 100 36q232 104 368 368q44 80 68 164q-44 -24 -96 -48 q-136 -60 -284 -54t-268 138h-2h-2q0 4 -4 4q-104 124 -84 296zM188 976q-16 -132 68 -224v-4q96 -104 218 -106t234 46q52 20 88 44q16 12 36 24t36 28q16 96 -4 212q-8 36 -32 100q-20 40 -48 72q-64 76 -184 104q-116 16 -216 -28q-48 -20 -80 -48l-4 -4 q-100 -88 -112 -216z" />
<glyph unicode=":" horiz-adv-x="720" d="M280 64q0 24 20 44t44 20t44 -20q16 -16 16 -44t-16 -44l-8 -8l-4 -4l-4 -8l-48 4q-8 0 -14 6l-10 10q-20 20 -20 44zM280 660q0 24 20 44t44 20t44 -20q16 -16 16 -44t-16 -44t-44 -16t-44 16q-20 20 -20 44z" />
<glyph unicode=";" horiz-adv-x="720" d="M244 -136q-16 24 8 36q48 32 68 84q0 12 4 16q-12 0 -24 12q-20 20 -20 44t20 44q24 16 44 16t44 -16q16 -16 16 -44t-16 -44l-8 -8l-4 -4h-2t-2 -4q0 -20 -4 -28q-24 -72 -88 -112q-24 -12 -36 8zM280 652q0 24 20 44q16 16 44 16t44 -16t16 -44t-16 -44 q-20 -20 -44 -20t-44 20t-20 44z" />
<glyph unicode="&#x3c;" horiz-adv-x="1040" d="M176 664q-40 44 0 92l596 640q44 48 92 4q44 -44 4 -92l-556 -600l556 -596q44 -48 -4 -92q-48 -40 -92 4z" />
<glyph unicode="=" horiz-adv-x="1040" d="M156 204q0 40 36 40h604q36 0 36 -40q0 -36 -36 -36h-604q-36 0 -36 36zM156 476q0 36 36 36h604q36 0 36 -36q0 -40 -36 -40h-604q-36 0 -36 40z" />
<glyph unicode="&#x3e;" horiz-adv-x="1040" d="M176 20q-52 48 0 92l556 596l-556 600q-48 44 0 92q52 44 96 -4l596 -640q36 -48 0 -92l-596 -640q-44 -40 -96 -4z" />
<glyph unicode="?" d="M4 1080q4 28 20 68q8 24 24 64q60 148 176 224q76 52 176 60q132 12 252 -40q124 -56 196 -160q44 -72 56 -156q12 -168 -60 -270t-160 -186q-76 -76 -138 -156t-50 -196q4 -48 -44 -52q-52 0 -52 44q-16 152 54 248t158 180q76 72 140 158t52 218q-8 52 -40 116 q-56 76 -152 124q-104 44 -200 32q-80 -8 -136 -48q-88 -60 -140 -180q-8 -12 -12 -26t-8 -26q-8 -16 -12 -32l-8 -32q-8 -52 -60 -36q-36 12 -32 60zM400 72h4q0 36 20 52q20 20 48 20q24 0 52 -20q20 -20 20 -52q0 -28 -20 -48q-28 -20 -52 -20q-28 0 -48 20 q-20 12 -20 48h-4z" />
<glyph unicode="@" horiz-adv-x="1200" d="M64 712q40 148 160 248q112 88 272 116q212 32 408 -92q128 -84 178 -222t42 -254q-8 -96 -40 -148q-40 -72 -104 -76q-56 -8 -112 48q-56 -68 -124 -96q-72 -36 -196 -36q-4 0 -8 2l-4 2q-28 0 -44 4q-4 0 -6 2l-2 2q-24 4 -64 20q-100 40 -140 156q-32 64 -32 136v10 v14v1v3v2v2q4 120 60 196q64 76 180 100q28 12 64 12h28h32q116 -8 208 -72v6v14q0 36 40 44q44 0 44 -40v-14v-10q0 -48 2 -94t2 -94t-2 -94t-2 -94q40 -52 72 -52q16 4 36 36q28 48 28 112q8 100 -32 216t-148 188q-168 100 -352 76q-132 -20 -228 -96q-100 -84 -136 -208 q-48 -160 36 -348q8 -20 18 -40t26 -32q84 -120 240 -168q164 -48 312 16q40 12 92 52q32 24 56 -8q32 -32 -8 -56q-44 -40 -104 -64q-96 -40 -192 -42t-180 22q-176 52 -284 196q-16 20 -28 42t-24 46q-96 216 -40 408zM328 552q4 -84 28 -132q16 -44 52 -72 q40 -44 100 -56q16 -4 44 -4h2h2q84 -8 152 20q64 28 112 104v38v38q0 48 2 94t2 94q-84 92 -216 108q-32 0 -52 -4q-16 0 -48 -8q-92 -20 -132 -72q-44 -56 -48 -148z" />
<glyph unicode="A" horiz-adv-x="1272" d="M20 494q-13 77 -13 155q0 108 25 219q44 192 164 320q80 84 196 128q85 32 198 32q41 0 86 -4l6 -2l6 -2q100 -16 184 -64q76 -52 140 -140q20 -28 -8 -48q-40 -24 -52 8q-64 80 -120 116q-60 40 -152 56h-10h-2q-41 4 -79 4q-218 0 -341 -136q-104 -112 -146 -282 q-26 -105 -25 -208q0 -64 9 -126q26 -164 126 -290t284 -146q41 -5 78 -4q127 0 212 52q110 68 194 228v164q0 36 38 36t38 -36v-172q8 -60 22 -114t46 -90q58 -73 186 -73q13 0 26 1q32 4 40 -32q0 -40 -36 -40h-14q-181 0 -258 100q-44 52 -68 144q-96 -144 -220 -196 q-101 -42 -231 -42q-30 0 -61 2q-208 20 -322 160t-146 322z" />
<glyph unicode="B" horiz-adv-x="1120" d="M0 1248q12 60 56 92q8 8 48 20q36 4 52 4q56 -8 100 -60v-2v-2q8 -8 8 -12q0 -8 4 -12l8 -8q8 -20 16 -68q68 60 124 92q100 60 244 60q156 0 252 -72q60 -44 100 -108q32 -64 40 -144q0 -124 -80 -236q-4 -4 -4 -8q4 0 12 -8l8 -4l22 -22l22 -22q32 -32 44 -48 q91 -127 91 -262q0 -74 -27 -150q-76 -216 -324 -260h-2h-2q-42 -3 -79 -3q-111 0 -177 27q-104 32 -184 128q-24 28 8 52q24 24 52 -4q60 -76 148 -108q67 -23 155 -23q33 0 69 3q204 36 266 214q22 62 22 122q0 113 -76 220q-12 16 -36 40t-40 36l-2 2t-6 2t-10 6t-6 10 l-8 -8l-4 -4q-36 -24 -76 -46t-80 -30q-40 -11 -75 -11q-54 0 -93 27q-12 4 -18 12t-14 20q-12 12 -20 30t-12 30q-2 12 -2 22q0 32 18 58q20 28 56 40q40 20 104 20q28 0 44 -4q12 -4 22 -8t22 -4q72 -24 124 -52l2 2q2 2 2 6q68 96 68 196q0 52 -28 108q-32 48 -76 84 q-90 56 -198 56h-14q-120 0 -208 -48q-80 -44 -152 -136q0 -124 -4 -256t-4 -264t-2 -262t-2 -270q-4 -36 -40 -34t-36 34q0 132 2 274t6 286q0 132 2 270t2 286q-8 56 -16 84q-4 0 -6 4t-2 8l-2 2q-2 2 -2 6q-24 28 -48 28q-20 4 -28 0q-12 0 -20 -8q-24 -16 -24 -44 q-8 -40 -44 -32q-32 4 -32 44zM588 772q4 -20 20 -36q0 -4 4 -8t12 -8q22 -13 51 -13q24 0 53 9q56 8 116 56q-56 24 -84 32q-12 0 -20 4l-16 8h-20h-12h-4q-36 0 -72 -12q-24 -12 -24 -16q-4 -4 -4 -16z" />
<glyph unicode="C" horiz-adv-x="836" d="M20 860q28 124 94 232t170 176q12 8 28 14t32 18q92 40 202 56q40 6 79 5q69 0 135 -17q56 -16 80 -32q28 -12 76 -44q24 -28 4 -52q-16 -40 -48 -8q-20 20 -60 36q-20 12 -68 28q-55 14 -113 14q-39 0 -79 -6q-100 -16 -184 -52q-32 -16 -48 -28q-92 -60 -150 -154 t-82 -206q-25 -112 -25 -209q0 -222 135 -357q194 -194 534 -198h76h84q36 8 36 -32t-32 -40q-32 -3 -59 -3q-13 0 -25 1q-36 2 -80 2q-380 0 -588 224q-148 160 -148 412q0 103 24 220z" />
<glyph unicode="D" horiz-adv-x="1120" d="M0 124q0 32 4 44q16 56 68 92q28 16 72 24v1036q0 36 32 36q36 0 36 -36v-1032q4 -4 8 -6t12 -2q132 -36 220 -122q84 -82 230 -82h14q72 0 144 42t136 154q28 56 48 112q16 40 32 124q14 82 14 165t-14 167q-28 168 -100 288q-52 84 -132 124q-72 36 -148 36t-144 -44 q-76 -44 -116 -124q-47 -92 -47 -183q0 -24 3 -49q8 -120 72 -244q12 -40 -16 -52q-36 -16 -48 20q-68 140 -76 268q-3 28 -3 56q0 117 55 220q44 92 144 156q72 44 176 52q88 0 176 -44q100 -52 160 -148q80 -132 110 -316q16 -95 16 -188q0 -87 -14 -172q-16 -80 -36 -136 q-20 -60 -52 -124v-4q-80 -132 -164 -182t-168 -50q-160 0 -258 74t-226 134q-4 0 -8 4v-96q0 -4 -2 -8l-2 -4q-20 -68 -64 -84q-24 -12 -48 -12q-32 8 -48 20q-44 24 -48 96zM68 128q0 -24 16 -40l6 -2t10 -2q12 0 16 4q12 4 28 36v84q-16 -4 -40 -12q-28 -20 -32 -44 q-4 -8 -4 -24z" />
<glyph unicode="E" horiz-adv-x="828" d="M0 436q0 72 36 176q28 80 92 152q4 8 12 16t16 20v4q-24 20 -40 52q-20 28 -28 56q-27 66 -27 124q0 19 3 38q12 74 48 130q48 72 144 116q92 40 184 40q100 0 202 -42t170 -134q20 -32 -8 -52q-32 -24 -52 8q-60 76 -144 112t-168 36t-156 -36q-76 -36 -108 -88 q-39 -54 -39 -120q0 -50 23 -108q0 -8 20 -44q8 -12 32 -44q87 59 179 59q52 0 105 -19q52 -28 80 -68q16 -32 12 -60q0 -32 -24 -60q-32 -40 -100 -48q-18 -3 -37 -3q-47 0 -95 21q-68 30 -124 78q-8 -8 -14 -16t-10 -12q-56 -68 -80 -132q-28 -84 -28 -152v-15 q0 -88 44 -163q48 -82 168 -130q108 -48 218 -50t230 -2h76h84q36 0 36 -40q0 -32 -40 -32h-80h-76q-50 -2 -98 -2q-73 0 -144 4q-118 6 -234 54q-144 60 -202 162t-58 214zM268 792q44 -36 92 -56q34 -14 69 -14l27 2q32 4 52 24q8 16 8 20q0 12 -4 16q-16 24 -44 36 q-37 13 -74 13q-65 0 -126 -41z" />
<glyph unicode="F" d="M0 308q0 72 20 112q16 36 56 56q24 16 52 -16q12 -36 -20 -48q-12 -8 -16 -14t-8 -10q-11 -24 -11 -48q0 -12 3 -24q4 -56 24 -88q12 -36 36 -52l2 -2t6 -2q48 -52 160 -76q76 -20 157 -19q51 0 103 7q132 16 200 92q32 40 36 68q13 48 13 116q0 17 -1 36q-4 92 -12 192 v4h-100q-36 0 -36 40q0 36 36 36h92q-5 72 -5 147q0 37 1 75q4 114 28 230q0 8 4 12q-60 -20 -108 -24q-17 -1 -35 -1l-173 33l-2 2l-2 2q-36 16 -68 34t-68 30q-41 13 -79 13q-32 0 -61 -9q-36 -12 -52 -36q-24 -24 -28 -64q-16 -36 -48 -28q-40 4 -24 44q12 60 40 96 q28 32 92 60q33 11 74 11q48 0 106 -15q64 -24 148 -72q72 -29 144 -29l32 1q72 4 132 48q0 8 20 64q8 48 60 60q28 0 40 -4q24 -16 32 -28q10 -16 10 -33t-10 -35q-4 0 -4 -8q-16 -12 -28 -24t-24 -20q-28 -20 -32 -20q-4 -20 -10 -38t-6 -38q-27 -149 -26 -293 q0 -72 6 -143h92q36 0 36 -36q0 -40 -36 -40h-84q8 -104 10 -200v-21q0 -83 -14 -147q-12 -48 -52 -96q-80 -92 -244 -116q-62 -10 -126 -10h-22q-76 2 -144 22q-116 24 -188 88q-40 24 -64 84q-28 52 -32 112z" />
<glyph unicode="G" horiz-adv-x="1156" d="M2 566q-2 32 -2 65q0 129 32 257q40 160 128 268q36 40 80 80q48 36 96 60q110 54 222 54q120 0 242 -62q56 -32 84 -52q36 -24 72 -60v-1v-3q28 -24 0 -52q-24 -24 -52 0v2v2q-16 12 -34 26t-30 26q-20 12 -38 24t-34 24q-104 51 -206 51q-98 0 -194 -47 q-40 -16 -80 -52q-24 -20 -72 -68q-80 -92 -118 -236q-30 -114 -30 -229q0 -31 2 -61q10 -146 72 -272t186 -182q108 -52 236 -52q108 0 188 44q80 56 128 152q52 108 52 260q0 36 36 36t36 -36v-4q4 -36 4 -116q0 -36 2 -70t2 -70q0 -64 2 -132t6 -136q36 28 56 36 q62 36 137 36h15q36 0 36 -40q-8 -36 -40 -32q-72 0 -112 -24q-52 -24 -92 -72q0 -120 2 -242t2 -234v-4q0 -12 -2 -26t-2 -26q-4 -12 -6 -24t-2 -24q-32 -112 -104 -120h-10q-81 0 -130 60q-48 72 -56 180q-4 4 0 8q0 80 20 148t56 128q32 60 72 110t84 98q0 72 -2 144 t-2 140q-56 -112 -152 -164q-88 -60 -224 -60q-144 0 -268 60q-140 64 -212 204t-82 302zM784 -544q12 -100 44 -140q22 -32 63 -32h9q20 0 40 64q4 8 4 36q4 12 4 44v4v196v200q-60 -64 -92 -132q-68 -116 -72 -240z" />
<glyph unicode="H" horiz-adv-x="888" d="M0 148q0 32 4 48q0 12 4 24l8 24v4q28 96 140 228q8 8 14 16t18 20v756q-16 12 -38 14t-38 6q-28 0 -28 -4v-8t8 -20q12 -36 -24 -48q-36 -16 -48 24q-11 30 -11 53q0 28 15 47q24 32 96 32h4q40 -8 64 -16q0 36 38 34t38 -38v-60v-696q24 24 54 50t62 50q20 20 48 44 t64 52q36 32 76 66t80 70v4v8q0 36 2 70t2 70v4v12q0 44 4 96t28 96q16 36 60 60q24 16 64 16t68 -28q24 -24 36 -60v-2v-2q8 -40 8 -68q-8 -48 -16 -72q-24 -60 -72 -120t-108 -116q0 -68 -4 -104q0 -196 6 -376t14 -244q4 -48 48 -72q26 -14 86 -15q24 0 54 3q40 0 40 -36 q0 -40 -36 -40q-17 -1 -33 -1q-96 0 -147 21q-80 40 -88 132q-8 64 -14 246q-4 109 -4 225q0 77 2 157v14v18q-28 -24 -56 -46t-52 -46q-32 -24 -60 -48t-52 -44q-44 -40 -86 -78t-78 -74v-320v-2v-2q-8 -100 -72 -136q-16 -12 -56 -20q-36 0 -60 16q-68 32 -76 132zM76 152 q4 -56 36 -68q8 -8 20 -8q24 12 20 8q36 20 36 72v1v3v236q-72 -88 -100 -172q-8 -32 -8 -40q-4 -12 -4 -32zM728 996q32 36 60 76t44 80q8 32 8 48q4 16 -4 48l-12 24q-8 8 -16 8q-20 0 -28 -8q-24 -8 -28 -28q-20 -32 -22 -76t-2 -80v-12v-8v-38v-34z" />
<glyph unicode="I" horiz-adv-x="800" d="M8 272q-5 33 -5 69q0 48 9 103q0 36 40 28q36 -8 32 -44q-11 -42 -11 -82q0 -32 7 -62q8 -80 72 -132q48 -52 140 -68q38 -8 81 -8t91 8v2t4 2q160 16 220 136q8 16 16 52q4 12 6 28t6 32l8 860q-40 -52 -84 -80q-36 -24 -78 -38l-78 -26q-112 -24 -156 -64 q-28 -32 -36 -64q-12 -44 -12 -92q0 -40 -36 -40t-36 40q-2 16 -2 32q0 40 14 80q20 64 56 100h2h2q36 36 84 52t100 32q36 8 70 18t66 34q40 28 68 64q24 32 64 100q16 32 48 12q20 -8 20 -32l-12 -992q0 -28 -8 -76q-8 -24 -24 -64q-80 -156 -280 -180q-54 -8 -103 -8 t-93 8q-108 16 -180 80q-76 68 -92 180z" />
<glyph unicode="J" horiz-adv-x="904" d="M0 1192v4q16 92 84 136q52 29 121 29q15 0 31 -1h2h6q40 -16 82 -32t82 -32t80 -36t76 -36q48 -32 148 -44v40q0 56 44 96q20 20 64 36q24 5 50 5q13 0 26 -1q40 -12 76 -56q0 -4 2 -8l2 -4q1 -19 1 -34q0 -30 -5 -46q-20 -68 -88 -92q-40 -16 -96 -16v-1028q8 0 16 2 t20 2h58h66t36 -36t-36 -36h-66h-54q-16 -4 -40 -4v-604v-2v-2q-8 -76 -52 -132q-36 -32 -72 -40q-12 -3 -25 -3q-26 0 -55 11q-64 20 -100 96q-16 24 -32 80q-20 75 -20 156q0 96 28 200q24 96 74 170t126 110q24 16 52 24v1040q-56 4 -104 20t-80 32q-60 36 -148 72 q-88 40 -156 60q-8 1 -16 1q-46 0 -84 -21q-36 -24 -48 -84q-2 -10 -2 -19q0 -39 26 -77q20 -36 76 -68q32 -20 12 -48q-16 -36 -48 -16q-76 44 -104 92q-36 60 -36 144zM524 -576q4 -40 24 -64q20 -48 64 -64q24 -8 36 -4q24 8 36 20q28 28 28 84v592q-4 0 -20 -8 q-116 -56 -160 -240q-26 -94 -26 -179q0 -72 18 -137zM788 1172q36 0 72 12q32 12 40 44q4 8 4 40q-8 8 -24 16q-24 0 -40 -4q-24 -8 -36 -20q-16 -16 -16 -40v-48z" />
<glyph unicode="K" horiz-adv-x="736" d="M4 1220q-2 10 -2 20q0 59 62 100q8 8 24 16t24 8q20 8 48 8h11q42 0 77 -28q28 -28 44 -72q8 -40 8 -64q4 -108 6 -220t6 -228v-148v-144q48 72 132 176q68 84 148 158t164 98h2h2q36 4 44 -28q4 -40 -24 -44h-4q-36 -16 -68 -36q-48 -28 -80 -60q-72 -64 -124 -136 q-44 -52 -78 -102t-58 -90q-16 -20 -26 -34t-18 -26q44 -60 90 -108t98 -84q100 -72 224 -76h24h28q32 4 40 -32q0 -40 -36 -40q-12 0 -34 -2t-26 -2q-88 0 -148 24t-116 68q-44 28 -82 66t-74 78l4 -196q0 -36 -36 -36q-40 0 -40 36v268q-4 0 -4 2v2v218v230q0 112 -4 226 t-4 222q0 20 -8 44q-8 20 -20 36q-12 12 -36 12q-4 0 -28 -8q-4 0 -10 -2l-6 -2l-16 -8q-36 -24 -28 -36q1 -8 1 -15q0 -30 -29 -33q-36 -20 -44 24z" />
<glyph unicode="L" horiz-adv-x="748" d="M0 128q0 20 16 52q40 64 128 64h4h4q28 0 40 -4h10h10v6v10q-24 116 -44 240t-40 252q-12 48 -18 94t-14 94q-9 47 -9 89q0 148 109 239q16 16 56 40l32 16t36 16l2 2q2 2 6 2q80 15 148 16q109 0 188 -40q116 -64 168 -228q12 -40 -24 -44q-36 -16 -48 24 q-36 128 -132 184q-65 29 -154 29q-60 0 -130 -13q-16 -8 -28 -16t-24 -12l-48 -32q-81 -71 -81 -197q0 -30 5 -63q8 -48 16 -94t16 -94q40 -240 84 -492q0 -12 2 -22t6 -22q64 -12 144 -44q56 -24 80 -36q68 -32 132 -52q53 -17 123 -17q14 0 29 1q32 4 40 -32 q0 -40 -36 -40q-17 -1 -34 -1q-82 0 -142 17q-72 20 -144 56q-48 24 -76 36q-32 12 -62 20t-58 20q-4 -24 -20 -64q-40 -56 -112 -80h-8h-8q-96 4 -128 68q-12 24 -12 52zM76 124q0 -8 4 -12q4 -28 60 -32q44 16 60 48q8 8 16 36q-20 0 -28 4h-20h-16h-6h-2q-44 0 -64 -28 q-4 -4 -4 -16z" />
<glyph unicode="M" horiz-adv-x="1480" d="M8 1248q76 108 172 116q92 0 184 -92q116 92 224 92q116 -8 224 -108q64 64 156 92q48 13 92 13q37 0 72 -9q80 -20 136 -84q48 -64 56 -164q0 -96 2 -194t2 -198q0 -256 12 -508q0 -80 40 -108q32 -20 168 -20q36 4 44 -28q4 -40 -32 -44h-32q-138 0 -188 32 q-72 48 -76 164q-8 124 -10 252t-2 260q0 96 -2 194t-2 194v4q0 68 -40 116q-36 44 -92 60q-28 7 -57 7l-71 -11q-76 -20 -140 -88l4 -1152q-8 -28 -36 -32t-40 32v1156q-104 96 -188 96q-92 0 -188 -80v-1172q-8 -36 -40 -34t-36 34v1168q-80 84 -139 84h-5q-52 0 -112 -80 q-24 -36 -52 -12q-24 16 -8 52z" />
<glyph unicode="N" horiz-adv-x="1156" d="M12 1200q-20 20 0 52q28 40 84 72q43 28 95 28h13q60 0 108 -48q20 -20 44 -52q104 88 280 108q23 1 44 1q64 0 112 -9q76 -20 140 -68q100 -88 112 -236h4v-868h-4q0 -64 36 -80q32 -26 100 -25q17 0 36 1q36 4 36 -32q4 -40 -32 -40h-25q-108 0 -155 32q-68 44 -68 144 v868q-12 112 -88 180q-44 32 -108 48q-42 9 -95 9q-18 0 -37 -1q-172 -16 -256 -104v-1140q-8 -36 -38 -36t-38 36v1148q-32 48 -48 60q-32 24 -64 32q-40 0 -68 -20q-32 -20 -68 -56q-24 -32 -52 -4z" />
<glyph unicode="O" horiz-adv-x="1156" d="M8 572q-5 54 -5 110q0 160 43 326q58 224 198 344q28 20 52 -4q28 -28 -4 -52q-128 -108 -182 -314q-37 -143 -37 -280q0 -61 7 -122q4 -40 12 -76t20 -72q20 -80 52 -124q68 -124 184 -180q85 -53 194 -53q15 0 30 1q120 4 232 68q128 76 204 216q68 128 86 304 q5 48 5 95q0 124 -35 237q-28 64 -52 112q-40 64 -68 88v4q-68 60 -168 80q-45 9 -88 9q-52 0 -100 -13q-32 -8 -68 -20q-16 -12 -32 -20t-28 -16q-184 -144 -212 -392q-8 -64 -8 -100t8 -108q8 -40 -32 -40q-40 -8 -40 32q-8 40 -8 116v54t4 54q40 280 244 440q12 12 32 22 t40 22q56 24 80 28q54 12 110.5 12t115.5 -12q118 -24 198 -96h4q52 -52 80 -108q36 -60 56 -124q41 -124 41 -262q0 -49 -5 -100q-20 -194 -92 -334q-88 -160 -236 -244q-116 -72 -264 -76h-17q-127 0 -247 56q-128 64 -212 212q-36 48 -60 140q-28 76 -32 160z" />
<glyph unicode="P" horiz-adv-x="1680" d="M0 1176q52 124 152 148q12 2 24 2q42 0 88 -22q36 -20 88 -76q64 -88 84 -184q96 124 216 190t252 90q65 11 129 11q75 0 149 -15q138 -28 246 -88q8 -8 16 -12l16 -8q76 -56 148 -132q136 -176 144 -408q1 -21 1 -42q0 -207 -109 -370q-56 -84 -132 -144 q-52 -44 -112 -66t-124 -34q-69 -10 -130 -10q-92 0 -166 22q-72 20 -138 56t-114 96q-76 100 -96 216q-8 36 28 44q36 4 44 -28q20 -112 84 -184q72 -92 212 -128q66 -24 144 -24q55 0 116 12q56 12 108 30t100 54q64 52 116 128q96 154 96 356v16q-16 204 -132 360 q-64 72 -128 116l-16 8t-12 12q-100 56 -224 80q-68 13 -136 13q-57 0 -116 -9q-128 -24 -248 -96t-208 -204q-8 -12 -12 -20l-8 -16q0 -216 -4 -424t-4 -412q-4 -200 -6 -400t-2 -432q0 -28 -38 -26t-38 26q0 212 2 418t6 410q0 200 2 406t2 442q0 60 -14 132t-54 128 q-36 40 -64 56q-40 16 -60 12q-60 -16 -104 -108q-16 -32 -48 -16t-16 48z" />
<glyph unicode="Q" horiz-adv-x="1148" d="M0 716v2v6q0 248 128 468q20 40 56 80q40 56 64 80l1 1l3 3q28 28 52 4q28 -28 4 -52q0 -4 -2 -6l-2 -2q-36 -36 -60 -72q-28 -36 -52 -76q-116 -188 -116 -428v-6v-2q0 -56 4 -84q0 -44 12 -84q16 -108 60 -210t116 -166q8 -4 16 -12q80 -68 172 -76v2v6v928 q-1 18 -1 35q0 120 49 197q44 72 156 108h4q48 8 92 8q202 0 340 -164q20 -24 52 -80q16 -28 40 -92q36 -120 40 -266v-29q0 -130 -32 -249q-12 -36 -36 -100q-16 -32 -48 -88q-4 0 -4 -2v-2q-8 -8 -14 -16t-10 -12q-68 -76 -156 -136q16 -12 36 -20t40 -12q76 -24 204 -24 q36 0 36 -36t-36 -36h-31q-105 0 -193 24q-56 12 -132 60q-92 -52 -180 -68q-70 -14 -138 -14q-46 0 -92 6q-114 16 -206 92q-4 0 -10 4t-6 8q-84 72 -134 186t-70 234q-4 28 -12 92q0 20 -2 42t-2 46zM528 76q68 0 128 16q60 8 128 44q-4 4 -28 20q-4 0 -6 4l-2 4 q-43 21 -78 21q-18 0 -34 -5q-56 -24 -100 -88q-8 -8 -8 -16zM528 196q28 28 80 52q35 12 69 12q55 0 107 -32q8 -4 16 -12h2h2q20 -16 52 -40q100 56 172 140q4 4 8 10t12 14v4q32 48 44 76q24 56 32 88q30 113 30 238v16q-2 134 -38 246q-12 36 -32 80q-12 16 -24 34 t-24 34q-114 137 -289 137q-34 0 -71 -5q-80 -32 -108 -76q-40 -60 -40 -192v-824z" />
<glyph unicode="R" horiz-adv-x="1028" d="M0 1240q4 40 32 76q20 28 44 40q28 12 64 12q32 -8 76 -36l2 -2l2 -2q36 -48 44 -144q72 100 192 144q66 22 142 22t162 -22l2 -2l2 -2q64 -28 128 -76q80 -84 108 -188q5 -31 4 -62q0 -77 -28 -154q-32 -72 -84 -128q-24 -24 -72 -64q4 -12 8 -22t12 -22q24 -72 28 -150 t4 -146q0 -96 16 -144t44 -68q28 -24 66 -24t82 4q36 0 36 -36q0 -40 -32 -40q-26 -2 -51.5 -2t-50.5 2q-50 4 -90 36q-40 28 -64 92t-24 180q0 60 -4 134t-24 134q-8 8 -12 18t-4 18q-4 0 -10 -2l-6 -2q-68 -32 -172 -44h-2t-2 4q-76 0 -96 64q-12 20 -4 52q0 20 16 52 q47 65 116 64h16q108 -20 164 -92q32 20 60 56q48 48 72 108q23 55 23 119q0 24 -3 49q-20 84 -88 144q-48 44 -104 68q-76 18 -142 18t-122 -18q-124 -48 -212 -196v-1020q-4 -32 -34 -34t-34 34v1024v8v2v2v4q0 52 -2 108t-22 88q-32 16 -40 16q-20 0 -28 -4t-12 -10 t-8 -6q-12 -16 -16 -40q0 -40 -36 -32q-32 0 -32 40zM536 664q4 -16 32 -20q80 4 148 36q-44 36 -108 48h-9q-34 0 -55 -28q-8 -16 -8 -20q-8 -12 0 -16z" />
<glyph unicode="S" horiz-adv-x="1120" d="M4 28q-4 32 16 52q96 48 180 120q-36 48 -44 104q-11 31 -11 65q0 27 7 55q12 104 104 172l4 2t8 2q60 23 114 23q58 0 110 -27h2h2q92 184 156 416q-24 24 -48 46t-44 46q-4 4 -4 8q-20 28 -44 76q-7 24 -7 49q0 17 3 35q12 40 48 64q16 12 48 24q8 0 12 4q88 0 128 -60 q23 -39 23 -99q0 -33 -7 -73v-2v-2q-16 -64 -24 -92q20 -20 38 -36t38 -32q108 -96 212 -202t152 -226q8 -24 16 -56q8 -42 8 -82q0 -98 -48 -186q-72 -124 -216 -176q-16 -4 -34 -10t-30 -6q-108 -20 -188 -20q-21 -1 -43 -1q-66 0 -141 9h-4q-156 28 -252 132 q-88 -76 -188 -132q-32 -12 -52 16zM224 412q-3 -21 -3 -40q0 -28 7 -52q0 -20 28 -68q96 100 160 204q32 48 44 76h-2h-2q-32 18 -72 18t-88 -18q-60 -44 -72 -120zM300 192q80 -88 208 -104q88 -12 176 -12q76 0 172 20q32 4 52 16q120 40 180 140q39 70 39 148 q0 33 -7 68q-8 32 -12 44q-44 108 -142 206t-202 194q-12 12 -24 22t-24 22q-76 -244 -160 -408q52 -60 80 -136q12 -36 -20 -48q-36 -16 -48 20q-32 60 -52 92q-12 -16 -20 -32t-16 -28q-80 -124 -180 -224zM580 1252q-12 -20 4 -36q4 -28 32 -60q20 -32 60 -64q0 12 4 26 t8 26q4 34 4 60q0 42 -12 60q-12 24 -56 24q-12 -4 -28 -12q-16 -16 -16 -24z" />
<glyph unicode="T" d="M24 468q3 29 33 29q7 0 15 -1q32 -14 32 -45v-7q-19 -64 -19 -117q0 -89 55 -147q76 -80 272 -92q43 -5 86 -5q58 0 116 9q102 16 174 72q12 12 24 22t24 26q12 20 28 52l2 2l2 2q24 74 24 184v32q-4 64 -16 136t-24 152q-8 48 -16 76q-12 56 -26 116t-18 120 q-8 48 -8 116q-42 -6 -83 -6t-81 6q-120 4 -248 56q-85 28 -152 28h-16q-32 0 -56 -12q-20 -12 -32 -40q-8 -40 -8 -72q4 -36 -36 -44q-44 0 -44 40q-2 13 -2 26q0 35 14 78q16 52 68 80q32 20 92 28q48 0 100 -12t100 -24q132 -48 224 -52q40 -4 81 -4t83 4v10v14 q8 72 40 126t104 66h10l70 -24q24 -28 36 -56q5 -19 5 -41q0 -11 -1 -23q-16 -64 -80 -100q-44 -28 -84 -40q-12 0 -20 -4h-2h-2q0 -60 8 -116q4 -60 18 -116t26 -112q4 -24 8 -42t8 -30v-4q32 -152 40 -300v-33q0 -130 -28 -215v-4h-2h-2q-8 -28 -40 -76q-32 -36 -60 -60 q-88 -64 -206 -82q-97 -15 -189 -15q-21 0 -41 1q-220 16 -320 120q-78 73 -78 204q0 63 18 140zM868 1296q32 4 64 24t40 48v10v14q-4 8 -12 16t-20 8q-60 -12 -72 -120z" />
<glyph unicode="U" horiz-adv-x="1212" d="M8 1132q-6 32 -6 63t6 61q24 68 100 92l2 2t6 2q8 0 16 2t16 2q48 0 76 -28q28 -24 44 -72q4 -16 4 -44v-4q0 -120 2 -244t2 -248v-292q0 -88 16 -144q20 -68 72 -108q32 -32 80 -48q36 -24 84 -28q42 -9 84 -9l132 23q108 38 188 114q8 12 20 56v2v2v196t4 300v176v296 q0 36 38 36t38 -36v-1004q12 -108 76 -148q40 -24 160 -24q40 0 40 -36t-40 -36h-27q-119 0 -173 32q-64 36 -92 128q-92 -84 -216 -124q-83 -27 -165 -27l-83 7q-36 8 -100 32q-48 24 -96 60q-72 52 -96 148q-20 64 -20 164v292v244v248v4q0 4 -2 10t-2 14q-8 24 -20 32 q-12 12 -28 12q-8 0 -12 -4h-6h-2q-36 -12 -48 -44q-4 -12 -4 -33t4 -51q4 -4 4 -16q12 -40 -24 -44q-36 -16 -48 24q0 12 -4 20zM952 284z" />
<glyph unicode="V" horiz-adv-x="1376" d="M8 1112q-5 45 -5 88q0 57 9 112q24 112 136 156q45 18 81 18q38 0 65 -20q54 -38 82 -110q28 -80 32 -176t4 -148v-4v-76v-72q-4 -120 -4 -242t12 -242q16 -160 100 -236q68 -64 200 -76h4q16 -1 31 -1q152 0 257 73q124 84 188 304q12 84 20 168q5 56 5 114q0 29 -1 58 q-8 172 -60 348q-12 20 -22 40t-18 40q-8 16 -12 20q-64 -16 -96 -20q-56 -8 -84 -8q-60 4 -84 16q-44 16 -72 60q-18 24 -18 48q0 8 2 16q0 36 28 64q28 36 108 60h2h6q48 0 112 -28t128 -108q68 24 130 56t102 56q12 8 23 8q18 0 33 -20q8 -14 8 -25q0 -18 -20 -31 q-40 -24 -102 -58t-130 -58l8 -8q8 -24 18 -44l22 -44h4h-4q0 -4 2 -4h2q52 -180 68 -372v-43q0 -171 -28 -321l-2 -2l-2 -2q-64 -248 -220 -344q-123 -88 -319 -88h-17h-4q-160 12 -252 96q-104 100 -124 288q-16 120 -16 246t4 250q0 36 2 72t2 72v4q0 48 -4 136t-28 160 q-31 71 -87 71q-17 0 -37 -7q-72 -32 -84 -100q-11 -42 -11 -89q0 -38 7 -79q0 -4 1 -8q0 -37 -37 -40q-44 0 -44 36zM840 1352q0 -8 4 -12q8 -12 32 -28q40 -8 56 -8q48 0 72 4q16 4 56 12q-76 80 -148 80q-36 -12 -64 -28q-8 -16 -8 -20z" />
<glyph unicode="W" horiz-adv-x="1680" d="M0 1120q0 76 28 140q16 40 64 80q40 24 88 24q32 0 56 -12q76 -40 92 -132q8 -36 8 -72v-72v-616q0 -112 34 -200t90 -132q48 -40 112 -52q16 -2 31 -2q46 0 85 18q116 56 176 260v776q0 36 34 36t42 -36v-780v-4q52 -188 196 -248q50 -22 97 -22q14 0 27 2q68 12 116 48 t80 102t32 162v732q-1 14 -1 27q0 123 69 173q28 28 68 28q5 1 10 1q26 0 62 -17q80 -56 100 -204q8 -40 -32 -40q-40 -8 -40 32q-12 112 -68 148q-16 8 -28 8t-24 -12q-45 -31 -45 -116q0 -13 1 -28v-732q0 -220 -140 -324q-68 -48 -152 -60h-21q-73 0 -139 24 q-140 56 -208 208q-76 -164 -180 -208q-60 -24 -137 -24h-23q-76 8 -144 68q-72 52 -114 154t-42 234v616v66t-4 66q-8 52 -52 76q-8 4 -28 4q-24 0 -40 -12q-24 -12 -40 -48q-20 -48 -20 -108q0 -37 -29 -37q-5 0 -11 1q-36 0 -36 36z" />
<glyph unicode="X" horiz-adv-x="1368" d="M12 200q-20 28 0 56q28 20 52 -4q104 -120 236 -156q59 -20 117 -20q36 0 71 8q84 12 152 72q60 56 92 144q40 184 40 416v8q0 140 -16 236q-4 28 -12 56t-12 56q-20 52 -36 80v4q-28 44 -72 76q-68 48 -156 48h-13q-73 0 -143 -40q-48 -28 -76 -68q-24 -32 -52 -8 q-32 20 -8 52q40 52 100 88q80 52 196 52q108 0 196 -64q52 -36 88 -100q32 -48 44 -100q8 -16 12 -28q0 12 8 28q16 64 44 100q28 56 88 100q84 64 200 64q108 0 196 -52q56 -40 96 -88q20 -32 -8 -52q-32 -24 -52 8q-36 44 -76 68q-73 40 -143 40h-13q-92 0 -156 -48 q-48 -36 -68 -76l-4 -4q-16 -28 -36 -80q-16 -72 -24 -112q-16 -96 -16 -236v-8q0 -232 40 -416q52 -176 200 -202q128 -23 245 -23q18 0 35 1h38h42q36 0 36 -36t-36 -36h-40h-40h-32q-137 0 -286 30q-166 34 -230 246h-4q0 8 -2 16t-2 20q-8 -24 -8 -36 q-32 -100 -112 -180q-80 -68 -192 -92q-40 -4 -76 -4q-84 0 -148 20q-144 40 -264 176z" />
<glyph unicode="Y" horiz-adv-x="1060" d="M0 824q28 88 116 124q33 9 68 9q12 0 24 -1q44 -8 88 -36q80 -60 80 -176v-4v-144v-180v-110v-82q0 -52 32 -88q28 -32 60 -40q40 -12 84 -12q100 0 168 60q32 28 40 184t8 272v292q0 40 40 40q44 0 44 -40v-856q92 40 234 40h26q41 0 41 -29q0 -5 -1 -11q-7 -32 -40 -32 h-8q-80 0 -138 -8t-114 -44v-536q1 -7 1 -14q0 -35 -17 -78q-20 -48 -60 -72q-32 -24 -88 -32q-64 0 -96 20q-40 12 -64 36q-65 61 -65 165q0 11 1 23q0 48 16 102t40 102q28 72 66 132t62 84q20 32 52 52q24 28 56 44q0 4 4 6t8 2v88q-96 -68 -216 -68q-56 0 -116 20 q-60 24 -96 64q-48 52 -48 132v82v110v180v144v4q0 72 -52 120q-24 12 -44 20q-32 0 -48 -8q-48 -16 -64 -68q-7 -29 -37 -29q-7 0 -15 1q-32 4 -32 44zM552 -540q-1 -12 -1 -23q0 -68 41 -109q12 -12 36 -24q32 -8 52 -8t44 16t32 40q12 24 12 60v4v472q-4 0 -6 -2l-2 -2 q-12 -12 -22 -24t-22 -24q-56 -52 -116 -196q-44 -104 -48 -180z" />
<glyph unicode="Z" horiz-adv-x="1092" d="M4 992q64 172 212 268q112 80 272 100q30 2 59 3q117 0 229 -39q176 -68 276 -216q36 -56 60 -108q8 -28 18 -56t18 -56q16 -76 16 -152t-16 -152q-32 -152 -140 -272q-60 -76 -120 -128t-112 -88q-24 -16 -36 -20q16 -24 28 -44q0 -8 4 -14t8 -10q104 60 256 68h60h68 t36 -40t-40 -32q-32 0 -64 -2t-56 -2h-4q-136 0 -224 -56l2 -4t2 -8q46 -138 46 -297v-13q-2 -166 -54 -282q-36 -76 -88 -112q-29 -16 -57 -16q-14 0 -27 4q-36 8 -68 40q-48 52 -64 148q-8 46 -8 92t8 92q20 104 56 184q12 24 22 42t22 34q12 20 26 38t26 30q40 40 64 56 q-8 8 -16 24t-32 48q-60 -28 -108 -32h-4q-20 -2 -37 -2q-82 0 -119 46q-20 32 -20 60q4 36 24 60q34 54 104 53q13 0 28 -1q44 -8 88 -36q20 -16 64 -60l20 10t24 18q108 68 216 200q92 108 122 244q16 70 16 140q0 65 -14 128q-16 56 -36 100q-20 52 -48 92v4 q-92 128 -240 188q-92 31 -194 31q-31 0 -62 -3q-136 -16 -240 -84q-136 -96 -184 -232q-16 -40 -48 -24q-24 8 -20 48zM460 112q0 -8 4 -8q9 -22 57 -22q14 0 31 2q12 0 30 6t34 10l-32 32q-32 16 -52 24h-11q-36 0 -53 -24q-8 -8 -8 -20zM576 -424q-8 -40 -8 -80t8 -80 q12 -72 48 -108q12 -20 28 -20q8 -4 28 4q24 16 64 80q44 104 46 252v13q0 141 -42 263q-20 -12 -36 -36q-28 -24 -44 -56q-16 -20 -40 -68q-44 -96 -52 -164z" />
<glyph unicode="[" horiz-adv-x="800" d="M234 962q-2 226 6 454q0 40 28 64q24 20 64 20h48h48h48h48q48 0 48 -52q0 -48 -48 -48h-48h-48h-46h-46q-8 -448 0 -892v-206v-202h184q48 0 48 -48t-48 -48h-208q-32 0 -48 16q-24 16 -24 48q0 108 -2 220t-2 220q0 228 -2 454z" />
<glyph unicode="\" d="M144 1308q4 20 24 32q28 4 40 4q20 -8 32 -24l724 -1252q8 -20 4 -40q-8 -24 -24 -28q-20 -8 -40 -4q-20 0 -32 20l-720 1252q-8 12 -8 40z" />
<glyph unicode="]" horiz-adv-x="800" d="M236 1448q0 52 48 52h48h48h48h48q36 0 64 -20q28 -24 28 -64q4 -228 4 -454v-454q0 -108 -2 -220t-2 -220q0 -32 -24 -48q-16 -16 -48 -16h-208q-48 0 -48 48t48 48h184v202v206q4 444 0 892h-46h-46h-48h-48q-48 0 -48 48z" />
<glyph unicode="^" d="M316 712q-24 24 8 56l176 140l8 8h4h2h2h4h4h4h4h2h2h4q0 -4 4 -6t8 -2l172 -140q28 -32 8 -56q-28 -32 -56 -8l-152 124l-152 -124q-32 -24 -56 8z" />
<glyph unicode="_" horiz-adv-x="800" d="M172 52q0 48 52 48h740q48 0 48 -48t-48 -48h-740q-52 0 -52 48z" />
<glyph unicode="`" d="M312 900q-20 32 12 56q32 20 56 -12l128 -196q12 -32 -12 -52q-36 -24 -56 12z" />
<glyph unicode="a" horiz-adv-x="944" d="M0 40q0 40 40 40q96 0 112 32q24 40 24 192v4v8v4v8q4 112 60 180q60 72 172 96q40 8 60 8q28 4 60 0q120 -8 200 -68v10v10q0 40 40 40t40 -36v-12v-8q0 -48 2 -90t2 -82q0 -48 -2 -94t-2 -90q36 -68 68 -88q35 -26 93 -26q15 0 31 2q44 0 44 -36q0 -40 -36 -40h-20 q-98 0 -156 36q-28 20 -68 68q-44 -48 -108 -80q-68 -28 -184 -28h-4q-28 0 -44 4q-76 4 -132 44q-24 8 -40 36l-16 16q-4 -8 -8 -14t-4 -10q-44 -72 -184 -72q-40 0 -40 36zM256 320q0 -44 8 -100q20 -60 48 -88q0 -4 8 -10t16 -10q44 -28 104 -32q8 -4 28 -4h4 q92 0 148 24q64 24 108 96v34v38q0 40 2 82t2 90q-84 88 -208 96h-24h-24q-16 0 -48 -8q-84 -20 -128 -68q-40 -40 -44 -136v-2v-2z" />
<glyph unicode="b" horiz-adv-x="864" d="M0 40q0 36 40 36q80 0 140 64q8 12 22 26t26 38q-36 64 -52 160h-4q-16 96 -34 216t-22 244q-1 32 -1 64q0 94 9 184q12 120 60 212q32 68 84 88q22 11 46 11q19 0 38 -7q32 -12 68 -52q64 -80 72 -224v-4q2 -46 2 -90t-2 -86q-4 -84 -16 -168q-24 -156 -58 -286 t-106 -262q36 -68 104 -108q51 -26 84 -25q8 0 16 1q84 4 108 88t32 152q-12 0 -18 4t-14 8h-2h-2q-60 24 -88 72t-28 92t8 60q8 24 40 48q15 7 31 7q32 0 69 -27q60 -48 76 -148q4 -20 4 -60q24 -8 36 -8q45 -11 85 -11q20 0 39 3q40 0 40 -40q0 -36 -36 -36t-72 2t-68 6 q-8 0 -16 2t-12 6v-12q-8 -72 -20 -104q-24 -68 -48 -100q0 -8 -4 -8q-64 -68 -136 -68h-14q-62 0 -126 32q-60 28 -112 100q-24 -32 -36 -44q-48 -52 -96 -68t-100 -16q-36 0 -36 36zM192 828q4 -120 20 -238t36 -210q16 -64 24 -92q52 112 82 230t50 242q8 80 12 164 q2 42 2 84t-2 84v2v2q-8 120 -52 180q-16 20 -36 28q-20 4 -28 0q-24 -8 -48 -52q-40 -84 -52 -194q-9 -82 -9 -171q0 -29 1 -59zM580 496q0 -68 72 -104h4q-4 28 -14 64t-34 60q-36 28 -28 -20z" />
<glyph unicode="c" horiz-adv-x="724" d="M0 44q0 36 44 36h16q134 0 160 66q24 61 24 161v29q0 76 32 160q24 60 72 92q79 56 179 57q7 0 13 -1q108 -4 188 -60q20 -15 20 -33q0 -11 -8 -23q-14 -22 -32 -22q-12 0 -24 10q-74 44 -160 44q-17 0 -34 -2q-106 -10 -146 -118q-18 -43 -18 -90q0 -27 6 -54 q16 -76 68 -124q72 -76 176 -84t200 -8q40 0 40 -36q0 -40 -40 -40h-28h-24h-27q-121 0 -229 32q-120 36 -160 120q-28 -96 -82 -126q-48 -26 -156 -26h-30q-40 0 -40 40z" />
<glyph unicode="d" horiz-adv-x="868" d="M0 40q0 36 40 36h10h10q48 4 72 44t36 132l16 88q0 8 4 12q0 4 2 8t2 12q16 56 40 96q24 32 40 44q80 80 200 80q112 0 212 -56q0 -4 2 -6l2 -2v118v118t2 120t2 120v156v164q0 36 36 36t36 -36v-88v-40v-40v-940q8 -96 60 -118t88 -22h10h14q36 0 36 -36t-40 -36h-10 h-10q-48 0 -114 16t-90 96q-52 -72 -122 -90t-118 -18q-16 0 -32 2t-28 10q-56 12 -88 36q-60 36 -96 96q-8 -24 -16 -42t-12 -30q-50 -76 -150 -76h-10q-36 0 -36 36zM264 352q-8 -29 -8 -56q0 -43 20 -80q24 -60 84 -96q40 -24 64 -28q32 -8 48 -8h22h22q68 8 114 56 t58 100v96v100q-12 8 -22 16t-22 20q-80 48 -168 48q-100 -8 -152 -60q-20 -20 -28 -32q-16 -28 -32 -76z" />
<glyph unicode="e" horiz-adv-x="688" d="M0 44q0 36 36 36h8q68 0 128 16q84 16 148 60q-119 115 -119 254q0 20 3 42q12 96 96 160q46 35 96 35q41 0 84 -23q60 -32 82 -94q19 -52 19 -103q0 -9 -1 -19q-8 -148 -128 -256q32 -24 52 -32q88 -40 228 -40q40 0 40 -36q1 -6 1 -11q0 -29 -37 -29h-26 q-143 0 -242 40q-56 32 -84 56q-88 -60 -196 -84q-61 -13 -119 -13q-15 0 -29 1q-40 0 -40 40zM288 444q-3 -19 -3 -37q0 -110 103 -203l2 2l6 6q52 48 96 168q14 38 14 69q0 68 -66 107q-23 11 -44 11q-33 0 -60 -27q-44 -44 -48 -96z" />
<glyph unicode="f" horiz-adv-x="640" d="M0 40q0 36 40 36q10 -1 20 -1q90 0 176 65q32 24 64 64v4v916q-1 12 -1 24q0 84 49 144q28 28 60 48q48 16 72 16q64 0 112 -36q36 -40 52 -100q8 -36 8 -104q0 -100 -8 -194t-28 -190q-40 -196 -124 -372q-52 -96 -108 -172q48 -68 120 -92q36 -16 80 -18t88 -2 q40 0 40 -36t-36 -36h-28q-98 0 -168 24q-60 16 -104 60v-812q0 -44 -38 -46h-3q-35 0 -35 46v52v230v170v202v166q-8 -4 -12 -8t-8 -4q-107 -80 -232 -80h-12q-36 0 -36 36zM376 304q32 56 52 88q76 168 116 356q36 180 36 368q0 32 -8 88q-8 36 -28 60q-28 20 -60 20 q-36 -12 -40 -12q-28 -16 -36 -28q-33 -40 -33 -94q0 -11 1 -22v-2v-2v-820z" />
<glyph unicode="g" horiz-adv-x="896" d="M0 40q0 36 40 36q52 0 88 20q36 16 68 96q-2 28 -2 54q0 77 18 134q24 80 100 140q16 12 40 28q73 39 148 39q32 0 64 -7q76 -20 136 -72q4 36 40 36t36 -40v-464q68 37 150 37q15 0 30 -1q36 0 36 -40q-8 -36 -40 -32h-15q-94 0 -161 -48v-540q0 -60 -20 -108 q-20 -40 -56 -60q-28 -20 -72 -28q-52 0 -80 20q-104 48 -108 176q-1 19 -1 37q0 84 29 159q16 64 48 124q32 68 72 116q56 84 112 140v88q-36 -28 -88 -48q-69 -27 -145 -27q-25 0 -51 3q-116 20 -172 96l-2 2l-2 2q-36 -52 -72 -76q-52 -28 -132 -28q-36 0 -36 36z M272 204q16 -40 28 -52q44 -60 128 -72q23 -5 47 -5q54 0 109 25q32 12 80 44q24 24 30 80t6 128v40q-8 16 -16 24q-56 72 -136 92q-22 4 -44 4q-60 0 -116 -32q-16 -8 -28 -20q-52 -36 -76 -104q-18 -41 -18 -91q0 -29 6 -61zM512 -576q4 -84 68 -120q32 -8 44 -8 q16 0 36 12q12 8 28 32q13 35 13 60q0 6 -1 12v4v464q-16 -20 -48 -68l-2 -2l-2 -2q-44 -56 -64 -104q-28 -48 -48 -112q-12 -36 -20 -80q-5 -29 -5 -59q0 -14 1 -29z" />
<glyph unicode="h" horiz-adv-x="868" d="M0 40q0 36 40 36q48 0 72 12q16 4 40 32q44 68 100 180q0 4 4 10t8 14q-8 56 -14 114t-6 118q-16 128 -26 258t-10 262q0 160 80 240q24 32 68 40q13 3 28 3q23 0 52 -7q52 -32 84 -120q12 -45 12 -113q0 -48 -6 -107q-14 -144 -54 -304q-8 -32 -16 -62t-16 -62 q4 4 -8 -20q58 26 125 26q17 0 35 -2q140 -12 160 -118t20 -214q0 -76 4 -100q4 -52 40 -64q32 -16 96 -16q40 0 40 -36t-36 -36q-12 -1 -23 -1q-68 0 -109 21q-68 36 -84 120q-4 24 -4 53t4 63q0 80 -14 162t-98 90h-4q-21 3 -39 3q-67 0 -105 -35q-48 -44 -68 -112 q-28 -76 -28 -176q0 -36 2 -74t2 -74v-4q0 -36 -36 -36t-40 36q0 24 -2 60t-2 72q-24 -48 -56 -92q-36 -48 -72 -60q-43 -17 -87 -17l-17 1q-36 0 -36 36zM284 1076q0 -132 10 -260t22 -256q0 -24 2 -44t6 -44q0 4 2 8t2 8q12 28 20 58t20 62q8 28 16 58t16 62 q36 152 50 284q7 62 7 109q0 54 -9 91q-20 60 -48 72q-12 4 -24 0q-16 0 -36 -20q-56 -56 -56 -188z" />
<glyph unicode="i" horiz-adv-x="596" d="M0 40q0 36 40 36q13 -1 26 0q142 0 184 82q46 90 54 210v50v50v44v44v2v2v2v2h2h2v2v2q0 4 4 8l2 2l2 2v2t4 2l2 2q2 2 6 2h4l2 2l2 2h4h2h2l2 -2l2 -2h4h4l2 -2t6 -2q0 -4 4 -10t8 -6v-4v-2v-2q4 0 4 -4v-44v-44v-50v-50q0 -120 48 -210q44 -83 189 -82h27q36 0 36 -36 t-36 -36h-22q-116 0 -182 40q-72 44 -100 116q-32 -72 -102 -116q-64 -40 -180 -40h-22q-36 0 -36 36zM296 732q0 44 44 44q48 0 48 -44q0 -48 -48 -48q-44 0 -44 48z" />
<glyph unicode="j" horiz-adv-x="496" d="M0 40q0 37 29 37q5 0 11 -1q7 -1 14 -1q86 0 136 93q54 100 62 168q12 48 14 104t2 116q0 36 36 36t36 -36l12 -520v-12q82 52 164 52h12q36 0 36 -36t-36 -36q-84 0 -172 -64l8 -424q0 -36 -4 -84t-16 -92q-36 -112 -148 -120h-22h-22q-64 20 -100 72q-28 64 -28 124 q-2 18 -2 37q0 48 14 99q4 40 24 88q8 24 20 50t24 50q32 60 76 120t100 108v64l-4 148q-24 -52 -80 -116q-53 -60 -148 -60h-12q-36 0 -36 36zM96 -584q8 -64 20 -84q16 -28 52 -36q8 -4 24 -4q52 8 84 72q12 36 14 76t2 76l-8 352q-60 -64 -116 -164l-22 -44t-18 -44 q-16 -56 -20 -76v-4q-12 -60 -12 -120zM268 680q0 12 12 20q4 12 20 12q12 0 24 -12q8 -8 8 -20q0 -8 -8 -24q-16 -8 -24 -8q-12 0 -20 8q-12 12 -12 24z" />
<glyph unicode="k" horiz-adv-x="732" d="M0 44q4 36 40 32q13 -1 24 -1q103 0 130 63q30 70 46 166q0 4 2 12t2 20q-8 32 -14 72t-10 84q-36 184 -58 396q-6 57 -6 109q0 143 44 255v4q20 52 68 88q24 20 72 20q44 0 72 -28q40 -32 60 -100q14 -48 15 -118q0 -47 -7 -104q-16 -142 -52 -302q-12 -36 -18 -66 t-14 -58q-8 -20 -14 -38t-10 -34l4 4l8 8q68 84 158 168t194 108q32 4 48 -28q4 -40 -28 -44q-84 -24 -172 -104t-152 -156q-12 -20 -26 -36t-22 -28q-8 -8 -16 -24q-12 -16 -28 -40q0 -4 -8 -12v-16q4 -12 12 -24l16 -24q20 -40 52 -68q68 -80 162 -106q64 -18 133 -18 q32 0 65 4q36 0 44 -36q0 -36 -36 -40q-25 -2 -50 -2q-93 0 -180 24q-110 30 -194 122q-28 24 -52 72q-20 -96 -72 -160q-46 -57 -165 -57q-15 0 -31 1q-36 0 -36 40zM238 888q22 -200 54 -376q8 24 14 48t18 48q8 28 14 58t18 62q36 152 50 284q7 62 7 110q0 55 -9 94 q-24 48 -40 64q-16 8 -28 12q-16 0 -28 -12q-20 -12 -40 -52q-37 -98 -37 -226q0 -55 7 -114zM330 332h2q-4 0 -2 0z" />
<glyph unicode="l" horiz-adv-x="516" d="M0 48q4 28 44 28q60 0 92 20t64 68q24 48 60 128q-40 92 -60 200q-28 100 -48 226t-20 246v46v46t2 44t6 44q24 136 96 192q36 32 76 32q44 0 80 -28q64 -52 92 -200q9 -56 9 -118q0 -20 -1 -42q-4 -84 -16 -168q-36 -184 -72 -312q-20 -60 -36 -112t-32 -96 q32 -76 60 -116q63 -101 147 -100h13q40 8 40 -32t-36 -40h-8q-131 0 -216 132q-12 12 -20 28l-16 32q-24 -48 -36 -68q-78 -124 -208 -124h-8q-48 0 -48 44zM204 964q0 -120 20 -240t48 -216q8 -36 24 -100q8 24 16 52t20 60q40 128 72 304q14 98 14 190q0 61 -6 118 q-20 112 -64 148q-20 12 -32 12q-20 0 -36 -12q-56 -48 -64 -148q-8 -48 -8 -80q-4 -28 -4 -88z" />
<glyph unicode="m" horiz-adv-x="1312" d="M0 40q0 36 40 36q13 -1 24 -1q56 0 72 17q20 20 24 96q2 28 2 56t-2 56v80t8 76v2v6q16 68 84 104q48 21 99 21q8 0 17 -1q56 0 112 -28q44 -32 60 -48q12 12 36 28q68 44 136 44t140 -44q8 -12 16 -18t20 -14q40 48 120 68q28 8 80 8q44 0 76 -16q76 -28 100 -120v-2v-2 q4 -36 6 -80t2 -88v-58t4 -54v-2v-2q0 -16 4 -24q0 -32 20 -44q16 -16 48 -16h10h14q32 4 40 -28q4 -40 -28 -44h-32h-13q-58 0 -91 32q-36 32 -44 88q0 4 -2 14t-2 22q0 24 -2 54t-2 62q0 40 -2 80t-2 80q-20 52 -60 64q-20 12 -48 12q-16 0 -56 -8q-76 -24 -100 -64v-202 v-198q-12 -28 -34 -32t-38 32v194v198q-28 32 -48 44q-44 32 -96 32h-11q-42 0 -81 -28h-2h-2q-28 -20 -44 -44v-200v-200q-12 -28 -36 -28t-36 28v202v202q-16 32 -52 52q-36 16 -84 24q-52 0 -76 -16q-36 -12 -48 -56q-6 -26 -6 -55v-15q2 -38 2 -74v-62v-54 q-8 -108 -50 -146q-38 -34 -130 -34h-20q-36 0 -36 36z" />
<glyph unicode="n" horiz-adv-x="960" d="M0 44q4 36 40 32q60 0 72 12q24 16 32 92q0 36 2 72t2 72v40v44q4 132 124 168l4 4q30 9 58 9q9 0 18 -1q44 0 80 -12q52 -20 88 -52q24 32 80 52q48 12 100 12q56 -8 96 -28q84 -48 92 -148v-64v-56v-54v-58v-8v-8q4 -48 28 -68t64 -20h2h6q36 4 44 -32q0 -40 -36 -40 h-8h-8h-11q-68 0 -105 44q-44 32 -48 108q0 16 -4 24v56v56q2 28 2 57t-2 59q0 52 -52 88q-32 16 -64 16q-8 1 -16 1q-26 0 -56 -9q-60 -20 -76 -72q0 -20 2 -38t2 -34v-40v-36q0 -84 -2 -150t-2 -90v-4v-6v-2q-16 -32 -44 -28q-28 8 -28 40v128v116v66v78v4q0 48 -68 72 q-32 8 -56 8q-16 0 -56 -8q-72 -32 -76 -100v-44v-40v-74t-4 -78q-8 -100 -56 -144q-38 -24 -105 -24h-19q-36 0 -36 40z" />
<glyph unicode="o" horiz-adv-x="860" d="M0 44q4 36 40 32q64 0 80 24q16 32 32 196v4v8q0 68 40 144q36 56 112 100q54 23 115 23q34 0 69 -7q4 0 10 4t14 8q4 0 4 4h2h6q24 5 50 5q13 0 26 -1q72 -12 120 -72q44 -56 60 -124q11 -45 11 -82q0 -18 -3 -34q-16 -88 -44 -136q-8 -8 -12 -16t-12 -16 q85 -35 157 -35q20 0 39 3q32 4 40 -32q0 -40 -36 -40q-16 -1 -31 -1q-116 0 -225 53l-18 -12t-14 -8q-84 -36 -166 -36t-146 36q-28 8 -48 32q-16 8 -44 36q-12 12 -20 28q-20 -60 -24 -68q-34 -60 -135 -60h-13q-36 0 -36 40zM224 292q4 -84 60 -136q4 -12 12 -18t20 -14 q8 -8 16 -14t20 -10q48 -24 112 -28h14l114 28q-44 24 -72 60q-12 12 -26 28t-26 32q-20 32 -32 64q-4 0 -4 2v2l-2 4t-2 8q-20 56 -20 108q0 22 4 44q4 20 20 52q-64 0 -96 -20q-52 -28 -80 -72q-28 -48 -32 -96v-8v-4v-12zM488 440q-4 -20 -5 -41q0 -35 13 -75q4 -4 4 -8 q4 0 4 -4q4 -16 28 -48q16 -32 40 -52q40 -44 84 -68q4 8 10 16t14 20q20 32 36 108q1 8 1 18q0 28 -9 70q-16 56 -44 92q-36 40 -76 48q-28 0 -44 -4h-4q-48 -20 -52 -72zM516 584h2h2h-4z" />
<glyph unicode="p" horiz-adv-x="840" d="M0 44q4 36 40 32q72 0 116 60q24 36 46 94t50 130v152q0 36 36 36t36 -36v-40l4 2t8 6q100 103 229 103q42 0 87 -11q24 -8 40 -12q96 -48 140 -152q17 -51 17 -107q0 -49 -13 -101q-16 -40 -24 -56q-16 -36 -40 -68h62h58q32 0 40 -36q0 -36 -36 -36q-56 -4 -118 -4 h-122q-44 0 -68 4q-20 0 -68 8q-72 8 -104 16q-36 12 -28 44q4 32 44 28q24 -4 48 -10t48 -6q16 -4 32 -6t32 -2q36 0 52 4q60 8 104 92q0 12 6 24t10 24q11 41 11 79q0 44 -15 85q-28 72 -100 108q-43 19 -86 19q-30 0 -60 -9q-74 -22 -126 -74q-40 -36 -64 -84v-1096 q0 -28 -38 -26t-34 26v908q-32 -68 -82 -112q-46 -40 -120 -40h-14q-36 0 -36 40z" />
<glyph unicode="q" horiz-adv-x="856" d="M0 44q4 36 40 32q7 -1 13 -1q69 0 97 81q30 88 46 180q0 4 -2 -2t6 26q12 56 40 96q44 68 128 108q55 25 117 25q27 0 55 -5q72 -16 116 -48q16 -8 44 -36v32q0 36 36 36q40 0 40 -36v-368v-4q0 -52 24 -64q24 -20 108 -20q32 0 40 -36q0 -36 -36 -36q-13 -1 -24 -1 q-71 0 -112 21v-760q-4 -36 -38 -38t-38 38v840q-60 -64 -136 -88q-45 -13 -110 -13q-16 0 -34 1q-80 12 -132 60q-36 28 -60 80q-53 -140 -178 -140h-14q-36 0 -36 40zM264 300q4 -4 4 -12q0 -108 68 -168q32 -32 96 -44q17 -3 35 -3q36 0 73 11q92 32 128 108 q16 48 20 112q1 9 1 18q0 53 -21 94q-20 28 -24 32q-12 16 -28 28q-52 28 -88 36q-17 2 -34 2q-50 0 -98 -18q-64 -28 -92 -80q-24 -28 -28 -68q-8 -20 -6 -14t2 -10q-4 -8 -6 -14t-2 -10z" />
<glyph unicode="r" horiz-adv-x="812" d="M0 48q0 32 28 32h32t40 4q24 4 46 30t34 50q56 100 72 288q-44 4 -64 16q-60 24 -60 92q0 20 12 40q16 24 28 36q24 16 51 16t57 -16q28 -20 44 -56q8 -24 8 -40h10h14q48 0 124 2h30q58 0 102 -6q60 -12 72 -64q9 -39 9 -80q0 -14 -1 -28q-4 -50 -4 -99t4 -97 q7 -89 141 -89q11 0 23 1q40 8 40 -32q0 -44 -36 -44h-15q-136 0 -197 68q-47 51 -47 146q0 25 3 54q4 20 4 48q0 12 2 26t2 26q2 20 2 36t-2 28q-8 24 -36 32q-28 4 -62.5 4t-75.5 -4q-82 -8 -98 -8h-2h-2q-16 -216 -80 -336q-20 -32 -36 -48q-20 -24 -40 -40h-2h-2 q-28 -24 -60 -28q-20 -4 -72 -4q-40 0 -40 44zM216 568q-20 -16 4 -28q8 -4 28 -4l-2 6t-2 10q-12 32 -28 16z" />
<glyph unicode="s" horiz-adv-x="880" d="M0 40q0 36 44 36q192 0 250 134t66 254q-36 16 -52 40q-13 18 -13 34q0 24 29 46l16 8h10h18q24 0 44 -12t28 -40q4 -8 4 -24v-16q48 -24 112 -44t100 -32q8 -4 20 -4q0 -4 4 -4q24 -8 52 -20q24 -12 44 -32q52 -44 70 -102q11 -35 11 -66q0 -21 -5 -40q-16 -56 -32 -80 h24h24h26h30q40 0 40 -36t-40 -36q-36 0 -56 -4h-80t-88 4q-22 -2 -46 -2t-50 2h-2h-2q-20 4 -42 10t-42 18q-64 24 -88 48q-28 28 4 52q14 14 28 14l28 -14q4 0 12 -8h2h2q36 -24 86 -34t106 -14q24 8 36 16q20 16 36 80q5 17 5 34q0 57 -53 106q-12 4 -18 8t-14 12 q-16 8 -40 16q4 -4 -20 8q-32 8 -84 24t-104 40q-12 -132 -90 -276q-76 -140 -294 -140h-12q-44 0 -44 36z" />
<glyph unicode="t" horiz-adv-x="544" d="M4 44q0 32 40 32q92 0 136 28q40 32 96 120v756h-184q-36 0 -36 36t36 36h184v264q0 36 34 38t42 -38v-264l180 -4q40 0 40 -36t-40 -36h-180v-756q40 -88 80 -112q44 -28 148 -28q40 0 40 -36t-40 -36q-18 -1 -35 -1q-101 0 -153 41q-40 24 -80 92q-48 -64 -88 -96 q-62 -40 -168 -40h-20q-40 0 -32 40z" />
<glyph unicode="u" horiz-adv-x="1040" d="M0 40q0 36 40 36q14 -1 26 0q138 0 180 78q46 86 50 202v42v46v24v28v8v12v8v10v14q0 32 36 40q40 0 40 -36v-8v-6v-2v-4v-10v-6q0 -96 8 -188t40 -164q0 -12 20 -36q20 -20 32 -24v-2v-2q44 -20 88 -20t88 24q40 20 64 60q16 32 20 52q12 32 20 108q4 16 4 52 q4 36 4 108v10v14v12v16v4v8q0 36 40 36q36 0 36 -36v-20v-16v-30v-26v-52v-48q0 -116 46 -202q42 -79 183 -78h27q40 0 40 -36q0 -40 -36 -40q-136 0 -206 42t-98 118q-8 -24 -12 -32q-40 -72 -116 -104q-48 -21 -93 -21q-8 0 -15 1q-56 0 -108 24q-36 24 -64 52 q-12 8 -18 20t-14 24q-4 8 -10 16t-6 20q-32 -76 -100 -118q-62 -38 -178 -38h-22q-36 0 -36 36zM372 516v16v-8v-8z" />
<glyph unicode="v" horiz-adv-x="1020" d="M0 40q0 44 40 44h8h12q20 0 46 4t42 40q0 36 6 86t10 102q4 68 10 128t18 84q8 64 64 100q36 24 84 24q44 0 80 -24q64 -36 88 -108q12 -48 16 -96t4 -96v-74t12 -74q4 -28 24 -52q16 -28 44 -36q24 -16 48 -8t36 16v4q16 8 40 40q8 12 14 28t18 36q36 108 36 228h-12h-4 q-28 0 -52 12q-28 4 -44 24l-2 2l-2 2q-50 47 -50 95q0 17 6 33q4 24 28 48q24 16 48 24h9q65 0 107 -52v-2v-2q20 -28 36 -92q36 4 76 22t76 42q32 20 56 -8q10 -15 10 -29q0 -18 -18 -31q-84 -56 -188 -80v-23q0 -124 -40 -241q-20 -48 -40 -80q-24 -40 -60 -64 q-16 -16 -64 -32q-11 -1 -22 -1q-44 0 -82 13q-52 28 -76 64q-24 32 -36 80q-12 40 -12 82v86q-4 44 -6 86t-14 82q-12 44 -48 64q-20 12 -44 12q-20 0 -36 -12q-24 -16 -28 -52q-4 0 -4 -4q-8 -16 -14 -72t-6 -124q-8 -52 -12 -104t-8 -88q0 -4 -4 -8q-24 -84 -76 -96 q-39 -9 -69 -9q-10 0 -19 1h-12h-4h-7q-33 0 -37 36zM720 584q-8 -24 20 -48l2 -2l2 -2l16 -8q4 -4 12 -6t16 -2q-8 28 -20 60q-20 20 -36 16q-8 0 -8 -4q-4 0 -4 -2v-2z" />
<glyph unicode="w" horiz-adv-x="1048" d="M0 40q0 37 29 37q5 0 11 -1h10q92 0 122 70q32 74 40 178q0 28 2 60t2 64v26v26v10v14v4l-4 28q0 36 40 36q36 0 36 -36v-8v-2v-2v-4v-10v-10q0 -96 6 -190t30 -166v-4q8 -24 16 -36q8 -20 28 -28q20 -16 48 -16q20 0 52 16q32 24 44 64q12 16 12 40q8 48 10 76t2 96v16 v28v32v12v16v4v2v2v4q0 36 40 36q36 0 36 -40v-10v-6v-46v-42v-20v-20q0 -16 0 2t0 6q0 -56 4 -104t20 -84v-2v-2q12 -44 48 -64q16 -16 48 -16q16 0 48 16q32 24 44 68q20 72 26 168t10 192v10v10v4v2v2v8q0 36 36 36t36 -36v-28v-4v-14v-10v-26v-26v-64t4 -60 q4 -104 36 -178q30 -70 126 -70h10q6 1 11 1q29 0 29 -37q0 -36 -36 -36h-10q-156 0 -206 128l-2 -2l-2 -2q0 -4 -4 -8q-24 -60 -64 -88t-92 -28q-48 0 -88 24q-48 32 -68 80q-32 -56 -68 -80q-44 -24 -92 -24q-52 0 -88 28q-28 16 -44 44q-16 20 -28 52l-2 2l-2 2 q-54 -128 -207 -128h-9q-36 0 -36 36z" />
<glyph unicode="x" horiz-adv-x="1012" d="M0 44q0 40 40 32q11 -1 21 -1q98 0 125 69q30 76 42 168q4 40 20 112q28 92 104 136q48 32 120 32q68 0 124 -32q36 -20 68 -60q0 4 8 12q32 44 88 64q24 8 36 8q12 4 28 4l4 2t8 2h22h22q40 -8 56 -12q88 -36 124 -128q4 -36 -24 -48q-32 -16 -48 20q-24 52 -52 72 q-34 21 -77 21q-7 0 -15 -1h-4h-6h-2q-56 -8 -96 -40q-8 -12 -24 -44v-2v-2q-4 -8 -4 -28q-8 -48 -8 -106t12 -106q4 -36 56 -64q8 -8 16 -12q36 -32 98 -34t122 -2q24 4 68 4q40 0 40 -40q0 -36 -40 -36h-34h-30q-29 -2 -57 -2q-43 0 -85 4q-70 6 -122 42q-4 0 -10 4t-6 8 q-48 32 -64 52q0 -4 -2 -6l-2 -2q-20 -20 -32 -28q-4 -4 -6 -8l-2 -4l-4 -4q-4 0 -4 -4q-12 -8 -20 -12l-16 -8q-32 -20 -96 -36q-14 -1 -29 -1q-45 0 -99 9q-36 8 -28 40q4 32 40 32q32 -4 58 -6t54 6q44 8 64 20q16 8 20 16q4 0 8 4t12 8q12 12 24 28t16 28l2 2l2 2 q0 8 4 12q7 70 7 128q0 39 -3 72v2v6q-28 64 -72 88t-88 24q-48 0 -84 -24q-52 -28 -68 -88q-8 -32 -16 -104q-16 -120 -58 -214q-39 -87 -184 -87q-12 0 -26 1q-36 0 -36 40z" />
<glyph unicode="y" horiz-adv-x="812" d="M0 40q0 36 40 36q48 0 88 16q40 24 68 104v76v76v106v110q0 36 36 36q40 0 40 -36v-106v-110v-74v-74q24 -48 52 -76q36 -40 88 -44q13 -2 25 -2q33 0 67 14q32 16 64 52q28 24 34 102t6 158v156q0 36 36 36q40 0 40 -36v-520q65 36 161 36h19q36 0 36 -40 q-8 -36 -40 -32h-15q-94 0 -161 -48v-540q0 -60 -20 -108q-28 -40 -56 -64q-32 -16 -72 -24q-48 0 -80 20q-104 48 -108 176q-4 23 -4 46q0 29 6 58q10 52 26 92q16 64 48 124q32 68 72 116q56 84 112 140v84q-36 -32 -72 -48q-60 -24 -119 -24h-17q-76 12 -128 68 q-8 8 -32 40q-36 -56 -76 -80q-46 -28 -111 -28h-17q-36 0 -36 36zM420 -576q4 -84 68 -120q32 -8 44 -8q16 0 36 12q16 12 28 32q13 35 13 60q0 6 -1 12v4v464q-28 -28 -48 -68l-2 -2l-2 -2q-20 -24 -36 -50t-28 -54q-28 -48 -48 -112q-12 -36 -20 -80q-5 -29 -5 -59 q0 -14 1 -29z" />
<glyph unicode="z" horiz-adv-x="828" d="M0 40q0 36 36 36q60 0 78 30t30 82q0 4 2 10l6 18q12 52 30 108t46 104q60 116 176 144q48 14 93 13q34 0 65 -7q74 -18 130 -54q52 -44 88 -112q28 -68 29 -122q0 -7 -1 -14q-16 -124 -120 -196h-2h-2q-4 -4 -20 -12v-4q4 -16 12 -28l16 -24q83 64 173 64h11 q36 0 36 -40q0 -36 -36 -36h-10q-82 0 -150 -60q0 -8 2 -14t2 -14q4 -16 8 -38t8 -46q16 -88 24 -180q0 -44 -2 -90t-10 -94l-4 -12q-12 -56 -36 -130t-88 -98q-36 -12 -56 -8q-44 0 -68 32q-28 32 -36 64q-16 44 -20 88q-2 22 -2 40t2 32q0 24 4 48t12 48q4 36 28 108 q24 76 60 150t88 130q0 4 -2 8l-2 4q-4 16 -28 56q-58 -26 -108 -26q-12 0 -24 2q-56 4 -68 56q-16 20 -8 44q0 24 16 48q24 36 84 44q20 0 44 -8q16 -4 40 -20q32 -24 44 -40l4 4q8 4 20 16h4q76 52 84 140q1 6 1 13q0 39 -21 83q-20 40 -64 84q-68 46 -149 46 q-38 0 -79 -10q-84 -24 -128 -108q-24 -44 -40 -94t-28 -98q-4 -8 -6 -16t-2 -16q-20 -76 -48 -120t-128 -44q-40 0 -40 36zM464 84q4 -12 24 -16q5 -2 12 -2q20 0 56 18q-8 4 -14 8t-10 12q-8 8 -20 8q-4 4 -16 4q-24 0 -28 -12q-4 0 -4 -8v-8v-4zM514 -592q2 -36 14 -72 q8 -24 20 -36q4 -4 24 -12l8 2t16 2q36 12 50 68t26 100v4q0 8 0 4v-8v4v16q13 67 13 132q0 16 -1 32q0 72 -20 172q-4 12 -6 26t-2 26q-68 -96 -104 -216q-8 -24 -16 -50t-8 -50q-12 -48 -12 -84q-4 -24 -2 -60zM744 -548z" />
<glyph unicode="{" horiz-adv-x="880" d="M184 736q-24 40 24 64h4q52 24 96 60t60 120v80v84l4 92q0 128 60 196q64 76 200 68q48 0 44 -52q0 -48 -52 -48q-88 8 -116 -32q-36 -36 -40 -132v-96q0 -44 -2 -86t-2 -82v-2v-2q-12 -92 -46 -138t-82 -74q76 -56 112 -140q24 -64 22 -126t-2 -122q-4 -48 -4 -96 t12 -88q16 -56 44 -72q24 -16 92 -16q44 0 52 -48q0 -48 -52 -48q-100 0 -144 28q-64 36 -84 128q-20 56 -20 108t8 108v106t-16 106q-24 60 -84 100q-12 4 -28 12q-8 0 -16 4t-12 8h-2h-2q-12 4 -28 28z" />
<glyph unicode="|" horiz-adv-x="800" d="M320 44v1400q0 52 48 52q52 0 52 -52v-1400q0 -44 -52 -44q-48 0 -48 44z" />
<glyph unicode="}" horiz-adv-x="880" d="M180 1448q0 52 44 52q136 8 204 -68q60 -68 60 -196v-92q0 -44 2 -84t2 -80q12 -84 56 -120t100 -60q44 -20 24 -64q-8 -24 -24 -28h-4q-12 -4 -28 -12l-16 -8t-12 -4q-60 -36 -84 -100q-20 -52 -20 -106t4 -106v-108t-12 -108q-24 -96 -88 -128q-44 -28 -144 -28 q-48 0 -48 48t52 48q64 0 92 16q28 20 44 72q12 40 10 88t-2 96q-8 60 -6 122t26 126q24 76 108 140q-48 28 -80 74t-44 138v2v2q-4 40 -4 82v86l-4 96q0 88 -36 132q-32 40 -120 32q-48 0 -52 48z" />
<glyph unicode="~" d="M260 784q40 56 104 56q60 0 148 -44q32 -20 52 -12t36 20q20 16 44 28t64 4q40 -16 28 -48q-8 -40 -48 -32q-16 4 -44 -16q-32 -24 -68 -38t-100 22q-76 40 -108 40q-20 0 -48 -28q-28 -32 -56 -8q-32 28 -4 56z" />
<glyph unicode="&#xa7;" horiz-adv-x="1120" d="M212 932q0 56 32 108q28 48 80 76q40 16 60 20q-60 72 -68 152q-16 92 52 172l10 10l18 18l2 2t6 2q80 56 172 56q76 4 148 -32q68 -32 116 -96q40 -68 40 -132q4 -52 -44 -52q-52 0 -52 48q0 36 -28 80q-20 32 -72 64q-48 24 -104 24q-72 -8 -120 -40l-10 -10l-6 -6 q-40 -52 -32 -96q12 -56 56 -112q8 -12 18 -20t22 -16q0 -4 2 -4h2q16 -20 48 -38t68 -42q108 -68 222 -158t114 -218h-2h-2h4q-16 -92 -68 -164q-32 -44 -76 -68q-8 -8 -16 -8q8 -12 16 -20t20 -16q44 -44 64 -104q12 -52 0 -116q-20 -56 -64 -100q-60 -60 -144 -80h-4 q-36 -12 -68 -12q-28 0 -68 8q-188 36 -268 224q-24 48 24 68q40 20 64 -24q64 -148 200 -172q16 -4 44 -4q20 0 44 8h2h2q64 16 104 56q20 16 36 56q4 28 0 60q-8 32 -36 64q-68 64 -144 120q-4 0 -10 4t-6 8q-4 0 -4 2v2q-32 24 -64 44t-60 44q-36 24 -70 46t-62 50 q-80 56 -112 126t-28 138zM312 928q-8 -104 96 -184q32 -24 64 -46t68 -46t72 -52t72 -52q24 -12 40 -12q20 -8 48 8q32 24 44 40q40 52 48 116q0 84 -96 154t-192 130q-12 4 -18 10l-14 14q-8 0 -8 4q-100 48 -168 16q-24 -12 -40 -40q-16 -24 -16 -60z" />
<glyph unicode="&#xa8;" horiz-adv-x="1040" d="M284 772q0 72 68 72q72 0 72 -72q0 -68 -72 -68q-68 0 -68 68zM556 772q0 72 72 72q68 0 68 -72q0 -68 -68 -68q-72 0 -72 68z" />
<glyph unicode="&#xaa;" horiz-adv-x="1320" d="M284 736q0 32 28 32q72 0 88 24q20 28 20 148v4v8v4v4q0 80 44 140q48 52 132 72q32 8 48 8h24h24q84 -8 156 -52v4v12q0 28 28 28q32 0 32 -28v-10v-6v-68v-68v-70v-70q24 -52 52 -68q40 -20 96 -20q32 8 32 -24q8 -32 -28 -32q-88 -8 -136 28q-36 24 -48 56 q-44 -48 -88 -64q-56 -24 -144 -24h-2h-2q-20 0 -28 4q-60 4 -104 32q-12 8 -32 28q-8 8 -12 16l-6 -12t-2 -8q-32 -56 -144 -56q-28 0 -28 28zM480 952q0 -36 8 -76q12 -48 36 -68q4 -8 20 -16q36 -24 76 -28h10h14h2h2q80 0 112 16q56 28 84 76q0 12 2 26t2 30v64v68 q-60 68 -160 76h-20h-20t-20 -2t-16 -2q-72 -20 -96 -52q-32 -36 -36 -108v-2v-2z" />
<glyph unicode="&#xad;" horiz-adv-x="880" d="M172 408q0 40 36 40h500q36 0 36 -40t-36 -40h-500q-36 0 -36 40z" />
<glyph unicode="&#xb0;" horiz-adv-x="1320" d="M284 740q0 28 32 28q48 -8 60 16q12 20 28 156v4v8q0 60 32 112q36 56 88 80q68 32 148 16l6 2t10 6q4 0 8 4h4q40 8 60 4q60 -12 96 -60q36 -44 48 -96q12 -56 8 -96l-16 -56t-20 -52q-8 -8 -16 -24q72 -36 152 -28q24 4 32 -24q0 -32 -28 -32q-104 -12 -204 40 q-16 -8 -28 -12q-64 -36 -130 -34t-118 30q-12 4 -22 10t-18 14q-12 8 -18 14t-14 18l-10 10t-6 14q-4 -20 -10 -32t-6 -24q-32 -56 -120 -48q-36 0 -28 32zM460 936q4 -64 48 -108q4 -8 10 -14t14 -10q8 -8 14 -12t18 -8q88 -52 188 0q-16 12 -30 24t-26 24q-16 16 -40 48 q-12 12 -18 26t-10 26q-4 4 -4 12q-28 60 -12 124q0 8 4 18t8 22q-48 0 -72 -16q-40 -20 -64 -60q-24 -28 -28 -76v-4v-4v-12zM668 1056q-8 -44 8 -92q4 0 4 -8q8 -16 24 -40q8 -12 16 -22t20 -22q28 -28 64 -52q12 12 20 28q20 28 28 84q4 24 -4 72q-16 48 -36 76 q-24 28 -60 36h-36h-2h-2q-32 -16 -44 -60zM696 1172z" />
<glyph unicode="&#xb4;" horiz-adv-x="800" d="M284 860q0 28 16 44q20 20 44 20t44 -20t20 -44t-20 -44q-4 -4 -10 -8l-6 -4v-18v-14q0 -28 -2 -58t-18 -54q-16 -20 -36 -4q-24 8 -8 32q12 16 12 38v46v14v18q-8 0 -12 4l-8 8q-16 16 -16 44z" />
<glyph unicode="&#xb7;" horiz-adv-x="800" d="M284 860q0 28 16 44q20 20 44 20t44 -20t20 -44t-20 -44q-4 -4 -10 -8l-6 -4v-18v-14q0 -28 -2 -58t-18 -54q-16 -20 -36 -4q-24 8 -8 32q12 16 12 38v46v14v18q-8 0 -12 4l-8 8q-16 16 -16 44z" />
<glyph unicode="&#xba;" horiz-adv-x="1320" d="M268 608q0 20 20 20h752q20 0 20 -20q0 -24 -20 -24h-752q-20 0 -20 24zM284 740q0 28 32 28q48 -8 60 16q12 20 28 156v4v8q0 60 32 112q36 56 88 80q68 32 148 16l6 2t10 6q4 0 8 4h4q40 8 60 4q60 -12 96 -60q36 -44 48 -96q12 -56 8 -96l-16 -56t-20 -52 q-8 -8 -16 -24q72 -36 152 -28q24 4 32 -24q0 -32 -28 -32q-104 -12 -204 40q-16 -8 -28 -12q-64 -36 -130 -34t-118 30q-12 4 -22 10t-18 14q-12 8 -18 14t-14 18l-10 10t-6 14q-4 -20 -10 -32t-6 -24q-32 -56 -120 -48q-36 0 -28 32zM460 936q4 -64 48 -108q4 -8 10 -14 t14 -10q8 -8 14 -12t18 -8q88 -52 188 0q-16 12 -30 24t-26 24q-16 16 -40 48q-12 12 -18 26t-10 26q-4 4 -4 12q-28 60 -12 124q0 8 4 18t8 22q-48 0 -72 -16q-40 -20 -64 -60q-24 -28 -28 -76v-4v-4v-12zM668 1056q-8 -44 8 -92q4 0 4 -8q8 -16 24 -40q8 -12 16 -22 t20 -22q28 -28 64 -52q12 12 20 28q20 28 28 84q4 24 -4 72q-16 48 -36 76q-24 28 -60 36h-36h-2h-2q-32 -16 -44 -60zM696 1172z" />
<glyph unicode="&#xc0;" horiz-adv-x="1272" d="M20 494q-32 182 12 374t164 320q80 84 196 128t284 28l6 -2l6 -2q100 -16 184 -64q76 -52 140 -140q20 -28 -8 -48q-40 -24 -52 8q-64 80 -120 116q-60 40 -152 56h-10h-2q-276 28 -420 -132q-104 -112 -146 -282t-16 -334t126 -290t284 -146q180 -20 290 48t194 228v164 q0 36 38 36t38 -36v-172q8 -60 22 -114t46 -90q64 -80 212 -72q32 4 40 -32q0 -40 -36 -40q-192 -4 -272 100q-44 52 -68 144q-96 -144 -220 -196t-292 -40q-208 20 -322 160t-146 322zM400 1676q-24 32 12 52q28 20 52 -8l116 -184q20 -28 -12 -52t-48 12z" />
<glyph unicode="&#xc1;" horiz-adv-x="1272" d="M20 494q-32 182 12 374t164 320q80 84 196 128t284 28l6 -2l6 -2q100 -16 184 -64q76 -52 140 -140q20 -28 -8 -48q-40 -24 -52 8q-64 80 -120 116q-60 40 -152 56h-10h-2q-276 28 -420 -132q-104 -112 -146 -282t-16 -334t126 -290t284 -146q180 -20 290 48t194 228v164 q0 36 38 36t38 -36v-172q8 -60 22 -114t46 -90q64 -80 212 -72q32 4 40 -32q0 -40 -36 -40q-192 -4 -272 100q-44 52 -68 144q-96 -144 -220 -196t-292 -40q-208 20 -322 160t-146 322zM576 1536l116 184q20 28 52 8q24 -16 12 -52l-120 -180q-20 -36 -52 -12q-32 20 -8 52z " />
<glyph unicode="&#xc2;" horiz-adv-x="1272" d="M20 494q-32 182 12 374t164 320q80 84 196 128t284 28l6 -2l6 -2q100 -16 184 -64q76 -52 140 -140q20 -28 -8 -48q-40 -24 -52 8q-64 80 -120 116q-60 40 -152 56h-10h-2q-276 28 -420 -132q-104 -112 -146 -282t-16 -334t126 -290t284 -146q180 -20 290 48t194 228v164 q0 36 38 36t38 -36v-172q8 -60 22 -114t46 -90q64 -80 212 -72q32 4 40 -32q0 -40 -36 -40q-192 -4 -272 100q-44 52 -68 144q-96 -144 -220 -196t-292 -40q-208 20 -322 160t-146 322zM368 1488q-20 24 8 52l160 128l8 8h4h2h6v4h4h4l4 -4h2h2h4q4 -4 8 -4v-4l164 -128 q28 -28 4 -52q-24 -32 -52 -8l-140 116l-140 -116q-28 -20 -52 8z" />
<glyph unicode="&#xc3;" horiz-adv-x="1272" d="M20 494q-32 182 12 374t164 320q80 84 196 128t284 28l6 -2l6 -2q100 -16 184 -64q76 -52 140 -140q20 -28 -8 -48q-40 -24 -52 8q-64 80 -120 116q-60 40 -152 56h-10h-2q-276 28 -420 -132q-104 -112 -146 -282t-16 -334t126 -290t284 -146q180 -20 290 48t194 228v164 q0 36 38 36t38 -36v-172q8 -60 22 -114t46 -90q64 -80 212 -72q32 4 40 -32q0 -40 -36 -40q-192 -4 -272 100q-44 52 -68 144q-96 -144 -220 -196t-292 -40q-208 20 -322 160t-146 322zM312 1552q44 52 100 52q52 0 136 -44q48 -24 80 8q20 12 44 24t60 4q32 -8 28 -44 q-8 -36 -44 -28q-20 4 -44 -16q-28 -24 -62 -36t-94 20q-72 36 -104 36q-20 0 -44 -24q-24 -32 -52 -4q-32 24 -4 52z" />
<glyph unicode="&#xc7;" horiz-adv-x="904" d="M24 944q28 136 102 256t186 196l32 16l32 16q104 48 226 64t238 -12q40 -12 84 -36q40 -20 84 -48q24 -28 8 -60q-32 -32 -56 -8q-36 24 -68 44q-16 8 -36 14t-36 14q-104 24 -212 10t-200 -58q-16 -8 -30 -16t-26 -12q-100 -64 -164 -172t-92 -228q-88 -408 124 -622 t584 -218h88h88q40 8 40 -36t-36 -44q-64 -4 -132 0q4 -32 -4 -68q-12 -36 -48 -76q-52 -44 -132 -44q-44 0 -48 40q0 44 44 44t76 24q16 20 24 36q4 12 4 36q0 4 -2 4h-2h-4t-4 4q-396 16 -610 262t-122 678z" />
<glyph unicode="&#xc9;" horiz-adv-x="828" d="M0 436q0 72 36 176q28 80 92 152q4 8 12 16t16 20v4q-24 20 -40 52q-20 28 -28 56q-36 88 -24 162t48 130q48 72 144 116q92 40 184 40q100 0 202 -42t170 -134q20 -32 -8 -52q-32 -24 -52 8q-60 76 -144 112t-168 36t-156 -36q-76 -36 -108 -88q-68 -96 -16 -228 q0 -8 20 -44q8 -12 32 -44q136 92 284 40q52 -28 80 -68q16 -32 12 -60q0 -32 -24 -60q-32 -40 -100 -48q-64 -12 -132 18t-124 78q-8 -8 -14 -16t-10 -12q-56 -68 -80 -132q-28 -84 -28 -152q-4 -96 44 -178t168 -130q108 -48 218 -52t230 0h76h84q36 0 36 -36t-40 -36h-80 h-76q-124 -4 -242 2t-234 54q-144 60 -202 162t-58 214zM268 792q44 -36 92 -56t96 -12q32 4 52 24q8 16 8 20q0 12 -4 16q-16 24 -44 36q-104 36 -200 -28zM376 1468l116 180q24 32 52 12q32 -28 12 -52l-116 -184q-24 -32 -52 -8q-36 16 -12 52z" />
<glyph unicode="&#xca;" horiz-adv-x="828" d="M0 436q0 72 36 176q28 80 92 152q4 8 12 16t16 20v4q-24 20 -40 52q-20 28 -28 56q-36 88 -24 162t48 130q48 72 144 116q92 40 184 40q100 0 202 -42t170 -134q20 -32 -8 -52q-32 -24 -52 8q-60 76 -144 112t-168 36t-156 -36q-76 -36 -108 -88q-68 -96 -16 -228 q0 -8 20 -44q8 -12 32 -44q136 92 284 40q52 -28 80 -68q16 -32 12 -60q0 -32 -24 -60q-32 -40 -100 -48q-64 -12 -132 18t-124 78q-8 -8 -14 -16t-10 -12q-56 -68 -80 -132q-28 -84 -28 -152q-4 -96 44 -178t168 -130q108 -48 218 -52t230 0h76h84q36 0 36 -36t-40 -36h-80 h-76q-124 -4 -242 2t-234 54q-144 60 -202 162t-58 214zM252 1428q-28 28 4 52l164 132l2 2t6 2h4l2 2l2 2h4h4h4q4 0 8 -4h4l2 -2t6 -2l160 -132q28 -24 8 -52q-24 -32 -52 -8l-140 116l-140 -116q-32 -24 -52 8zM268 792q44 -36 92 -56t96 -12q32 4 52 24q8 16 8 20 q0 12 -4 16q-16 24 -44 36q-104 36 -200 -28z" />
<glyph unicode="&#xcd;" horiz-adv-x="800" d="M8 268q-12 80 4 168q0 40 40 32q36 -8 32 -44q-20 -76 -4 -144q8 -80 72 -132q56 -56 140 -64q60 -16 172 0h4q156 16 220 140q4 8 16 48q4 12 6 28t6 32l8 852q-40 -52 -84 -80q-36 -24 -78 -38l-78 -26q-112 -24 -156 -64q-24 -24 -36 -64q-12 -44 -12 -92 q0 -36 -36 -36t-36 36q-8 60 12 112q16 60 56 100h2h2q36 36 84 52t100 28q36 12 70 22t66 30q36 24 68 68q12 20 28 44t36 52q12 32 48 16q20 -12 20 -36l-12 -980q0 -32 -8 -72q-16 -48 -24 -68q-80 -152 -280 -176q-108 -16 -196 0q-108 16 -180 80q-76 64 -92 176z M752 1440l116 180q20 32 52 12q28 -24 12 -52l-116 -180q-28 -36 -52 -12q-36 24 -12 52z" />
<glyph unicode="&#xd3;" horiz-adv-x="1156" d="M8 572q-20 212 38 436t198 344q28 20 52 -4q28 -28 -4 -52q-128 -108 -182 -314t-30 -402q4 -40 12 -76t20 -72q20 -80 52 -124q68 -124 184 -180q96 -60 224 -52q120 4 232 68q128 76 204 216q68 128 86 304t-30 332q-28 64 -52 112q-40 64 -68 88v4q-68 60 -168 80 t-188 -4q-32 -8 -68 -20q-16 -12 -32 -20t-28 -16q-184 -144 -212 -392q-8 -64 -8 -100t8 -108q8 -40 -32 -40q-40 -8 -40 32q-8 40 -8 116v54t4 54q40 280 244 440q12 12 32 22t40 22q56 24 80 28q108 24 226 0t198 -96h4q52 -52 80 -108q36 -60 56 -124q56 -168 36 -362 t-92 -334q-88 -160 -236 -244q-116 -72 -264 -76q-136 -4 -264 56q-128 64 -212 212q-36 48 -60 140q-28 76 -32 160zM616 1504l120 184q20 24 52 8t8 -48l-116 -184q-28 -36 -52 -12q-28 20 -12 52z" />
<glyph unicode="&#xd4;" horiz-adv-x="1156" d="M8 572q-20 212 38 436t198 344q28 20 52 -4q28 -28 -4 -52q-128 -108 -182 -314t-30 -402q4 -40 12 -76t20 -72q20 -80 52 -124q68 -124 184 -180q96 -60 224 -52q120 4 232 68q128 76 204 216q68 128 86 304t-30 332q-28 64 -52 112q-40 64 -68 88v4q-68 60 -168 80 t-188 -4q-32 -8 -68 -20q-16 -12 -32 -20t-28 -16q-184 -144 -212 -392q-8 -64 -8 -100t8 -108q8 -40 -32 -40q-40 -8 -40 32q-8 40 -8 116v54t4 54q40 280 244 440q12 12 32 22t40 22q56 24 80 28q108 24 226 0t198 -96h4q52 -52 80 -108q36 -60 56 -124q56 -168 36 -362 t-92 -334q-88 -160 -236 -244q-116 -72 -264 -76q-136 -4 -264 56q-128 64 -212 212q-36 48 -60 140q-28 76 -32 160zM396 1472q-24 28 4 52l164 132l2 2t6 2l4 2l4 2h4h4h2h2l2 -2t6 -2l4 -2t8 -2l160 -132q28 -24 8 -52q-24 -32 -52 -8l-140 116l-140 -116q-32 -24 -52 8z " />
<glyph unicode="&#xd5;" horiz-adv-x="1156" d="M8 572q-20 212 38 436t198 344q28 20 52 -4q28 -28 -4 -52q-128 -108 -182 -314t-30 -402q4 -40 12 -76t20 -72q20 -80 52 -124q68 -124 184 -180q96 -60 224 -52q120 4 232 68q128 76 204 216q68 128 86 304t-30 332q-28 64 -52 112q-40 64 -68 88v4q-68 60 -168 80 t-188 -4q-32 -8 -68 -20q-16 -12 -32 -20t-28 -16q-184 -144 -212 -392q-8 -64 -8 -100t8 -108q8 -40 -32 -40q-40 -8 -40 32q-8 40 -8 116v54t4 54q40 280 244 440q12 12 32 22t40 22q56 24 80 28q108 24 226 0t198 -96h4q52 -52 80 -108q36 -60 56 -124q56 -168 36 -362 t-92 -334q-88 -160 -236 -244q-116 -72 -264 -76q-136 -4 -264 56q-128 64 -212 212q-36 48 -60 140q-28 76 -32 160zM404 1552q44 52 100 52t140 -44q40 -24 80 8q20 12 44 24t60 4q32 -8 28 -44q-8 -40 -48 -28q-20 4 -40 -16q-28 -24 -64 -36t-96 20q-64 36 -100 36 q-24 0 -48 -24q-24 -32 -52 -4q-28 20 -4 52z" />
<glyph unicode="&#xd7;" d="M188 16q-36 36 0 72l240 240l-240 236q-36 36 0 72q32 24 68 0l240 -240l240 240q28 28 68 0q36 -36 0 -72l-240 -236l240 -240q36 -36 0 -72q-40 -28 -68 0l-240 240l-240 -240q-36 -24 -68 0z" />
<glyph unicode="&#xda;" horiz-adv-x="1212" d="M8 1132q-12 64 0 124q24 68 100 92l2 2t6 2q8 0 16 2t16 2q48 0 76 -28q28 -24 44 -72q4 -16 4 -44v-2v-2q0 -120 2 -244t2 -248v-146v-146q0 -88 16 -144q20 -68 72 -108q32 -32 80 -48q36 -24 84 -28q108 -24 216 14t188 114q8 12 20 56v2v2v196t4 300v190v310 q4 36 36 36t40 -36v-518v-514q12 -108 76 -148q40 -24 160 -24q40 0 40 -36t-40 -36q-140 -4 -200 32q-64 36 -92 128q-92 -84 -216 -124t-248 -20q-36 8 -100 32q-48 24 -96 60q-72 52 -96 148q-20 64 -20 164v146v146v244v248v2v2q0 4 -2 10t-2 14q-8 24 -20 32 q-12 12 -28 12q-8 0 -12 -4h-6h-2q-36 -12 -48 -44q-8 -24 0 -84q4 -4 4 -16q12 -40 -24 -44q-36 -16 -48 24q0 12 -4 20zM564 1468l116 184q20 24 52 12q32 -28 12 -52l-116 -184q-24 -32 -52 -8q-40 12 -12 48zM952 284z" />
<glyph unicode="&#xdc;" horiz-adv-x="1320" d="M8 1244q-12 76 4 140q28 76 104 100q8 0 12 4q8 0 16 2t20 2q44 0 84 -32q32 -24 48 -80q4 -12 4 -48v-4q0 -132 2 -268t2 -272v-320q0 -100 20 -160q16 -72 76 -120q56 -40 88 -52q28 -16 92 -32q120 -24 240 18t204 126q12 20 24 60v2v2v214t4 330v196v328q0 40 40 38 t40 -38v-1108q24 -124 84 -160q48 -28 180 -28q44 0 44 -40t-44 -40q-68 -4 -122 2t-98 34q-76 44 -104 140q-96 -96 -234 -138t-274 -18q-60 8 -112 36q-64 24 -104 64q-80 60 -104 160q-16 44 -18 90t-2 94l-4 320v268v272v4q0 8 -2 14t-2 14q-4 20 -20 36q-12 12 -32 12 h-10h-6q-4 -4 -8 -4q-40 -12 -52 -48t4 -92q0 -12 4 -16q4 -48 -28 -52q-48 -16 -52 28q-12 24 -8 20zM440 1716q0 96 96 96t96 -96t-96 -96t-96 96zM808 1716q0 96 96 96t96 -96t-96 -96t-96 96zM1048 312z" />
<glyph unicode="&#xe0;" horiz-adv-x="964" d="M0 44q0 40 40 40q96 0 112 36q24 36 24 196v4v8v4v4v2v2q4 112 60 188q60 72 172 96q12 4 28 6t32 6h28h32q116 -8 200 -72v8v12q0 40 40 40q40 4 40 -36v-14v-6q0 -48 2 -92t2 -88q0 -48 -2 -96t-2 -92q32 -68 68 -92q44 -32 124 -24q44 0 44 -40t-36 -40 q-116 -4 -176 40q-36 20 -68 72q-48 -60 -108 -84q-44 -24 -90 -28t-94 -4h-4q-28 0 -44 4q-76 4 -132 44q-16 12 -40 36q-8 4 -12 10t-4 10q-4 -8 -8 -14t-4 -10q-44 -76 -184 -76q-40 0 -40 40zM256 332q0 -40 8 -104q20 -68 48 -88l24 -24q40 -28 104 -36h12h16h4 q88 -8 148 20q68 32 108 104v34v38q0 44 2 88t2 92q-88 92 -208 100h-24h-24q-16 0 -48 -8q-92 -24 -128 -68q-40 -52 -44 -144v-2v-2zM304 908q-24 32 12 56q28 20 52 -12l128 -196q20 -32 -12 -52q-36 -24 -56 12z" />
<glyph unicode="&#xe1;" horiz-adv-x="964" d="M0 44q0 40 40 40q96 0 112 36q24 36 24 196v4v8v4v4v2v2q4 112 60 188q60 72 172 96q12 4 28 6t32 6h28h32q116 -8 200 -72v8v12q0 40 40 40q40 4 40 -36v-14v-6q0 -48 2 -92t2 -88q0 -48 -2 -96t-2 -92q32 -68 68 -92q44 -32 124 -24q44 0 44 -40t-36 -40 q-116 -4 -176 40q-36 20 -68 72q-48 -60 -108 -84q-44 -24 -90 -28t-94 -4h-4q-28 0 -44 4q-76 4 -132 44q-16 12 -40 36q-8 4 -12 10t-4 10q-4 -8 -8 -14t-4 -10q-44 -76 -184 -76q-40 0 -40 40zM256 332q0 -40 8 -104q20 -68 48 -88l24 -24q40 -28 104 -36h12h16h4 q88 -8 148 20q68 32 108 104v34v38q0 44 2 88t2 92q-88 92 -208 100h-24h-24q-16 0 -48 -8q-92 -24 -128 -68q-40 -52 -44 -144v-2v-2zM520 744l124 196q20 32 56 12q28 -24 12 -56l-128 -192q-24 -36 -52 -12q-36 20 -12 52z" />
<glyph unicode="&#xe2;" horiz-adv-x="964" d="M0 44q0 40 40 40q96 0 112 36q24 36 24 196v4v8v4v4v2v2q4 112 60 188q60 72 172 96q12 4 28 6t32 6h28h32q116 -8 200 -72v8v12q0 40 40 40q40 4 40 -36v-14v-6q0 -48 2 -92t2 -88q0 -48 -2 -96t-2 -92q32 -68 68 -92q44 -32 124 -24q44 0 44 -40t-36 -40 q-116 -4 -176 40q-36 20 -68 72q-48 -60 -108 -84q-44 -24 -90 -28t-94 -4h-4q-28 0 -44 4q-76 4 -132 44q-16 12 -40 36q-8 4 -12 10t-4 10q-4 -8 -8 -14t-4 -10q-44 -76 -184 -76q-40 0 -40 40zM256 332q0 -40 8 -104q20 -68 48 -88l24 -24q40 -28 104 -36h12h16h4 q88 -8 148 20q68 32 108 104v34v38q0 44 2 88t2 92q-88 92 -208 100h-24h-24q-16 0 -48 -8q-92 -24 -128 -68q-40 -52 -44 -144v-2v-2zM316 708q-24 24 8 56l176 140q0 4 8 4v2v2h4h2h2h4h4h4h4h2h2h4l8 -8l176 -140q28 -32 8 -56q-28 -32 -56 -8l-152 120l-152 -120 q-32 -24 -56 8z" />
<glyph unicode="&#xe3;" horiz-adv-x="864" d="M0 40q0 36 36 36q88 0 104 32q20 32 20 180v4v8v8q4 108 56 172t156 88q32 8 52 8q28 4 56 0q108 -8 184 -64v8v12q0 36 32 36q40 0 40 -36v-10v-6v-86v-78v-88v-84q24 -60 60 -80q40 -32 112 -24q40 0 40 -36t-32 -36q-104 -4 -160 36q-40 24 -60 64q-48 -56 -100 -76 q-64 -28 -168 -28h-2h-2q-24 0 -36 4q-68 4 -120 40q-32 24 -40 32q-12 12 -16 20q-4 -8 -6 -14t-2 -10q-44 -68 -168 -68q-36 0 -36 36zM232 304q0 -40 8 -96q8 -48 44 -80q4 -8 20 -24q24 -20 96 -32h10h14h4q68 -8 136 20q64 28 96 92q0 16 2 32t2 36v76v84 q-76 84 -188 92h-22h-22t-44 -8q-80 -20 -116 -60q-36 -48 -40 -132zM236 708q40 52 96 52q52 0 132 -44q28 -16 46 -8t34 20q20 12 42 24t58 4q32 -16 24 -44q-8 -40 -40 -28q-20 4 -44 -16q-28 -24 -60 -36t-92 24q-72 32 -100 32q-24 0 -40 -24q-28 -28 -52 -4 q-32 20 -4 48z" />
<glyph unicode="&#xe7;" horiz-adv-x="724" d="M0 44q0 40 44 40q144 0 174 66t26 186q0 76 32 160q24 60 72 92q84 60 192 56t188 -60q32 -24 12 -56q-24 -36 -56 -12q-88 52 -194 42t-146 -118q-28 -68 -12 -144t68 -124q48 -56 134 -76t190 -12h26h26q40 0 40 -40t-40 -40q-36 0 -72 -2t-72 2q8 -8 8 -24 q4 -36 -4 -64q-20 -32 -52 -44q-24 -12 -68 -12q-44 8 -36 48q0 36 44 36h32q0 4 2 6l2 2v6v10q0 24 -20 48q-4 0 -8 2l-4 2q-168 36 -220 136q-28 -96 -82 -126t-186 -26q-40 0 -40 40z" />
<glyph unicode="&#xe9;" horiz-adv-x="688" d="M0 44q0 40 44 40q60 -8 128 12q84 16 148 60q-40 40 -60 68q-8 12 -14 24t-10 24q-40 88 -32 180q12 108 104 168q16 8 28 12q16 8 28 8q56 16 116 -16q48 -24 84 -88q8 -24 8 -36q12 -56 8 -92q-8 -144 -128 -252v-4q32 -24 52 -32q92 -44 228 -36q40 0 40 -40 q8 -40 -36 -40q-164 -4 -268 44q-48 20 -84 52q-88 -60 -196 -84q-76 -16 -148 -12q-40 0 -40 40zM288 444q-8 -76 24 -140q8 -24 16 -36q20 -24 60 -64l8 8q96 88 104 200q0 44 -4 68q-8 16 -8 24q-20 32 -48 52q-28 12 -60 8l-16 -8l-16 -8q-56 -36 -60 -104zM380 760 l128 200q20 32 56 12q32 -24 12 -56l-128 -200q-24 -36 -56 -12q-36 20 -12 56z" />
<glyph unicode="&#xea;" horiz-adv-x="688" d="M0 44q0 40 44 40q60 -8 128 12q84 16 148 60q-64 60 -84 116q-40 88 -32 180q12 108 104 168q16 8 28 12q16 8 28 8q56 16 116 -16q48 -24 84 -88q8 -24 8 -36q12 -56 8 -92q-8 -144 -128 -252v-4q32 -24 52 -32q92 -44 228 -36q40 0 40 -40q8 -40 -36 -40 q-164 -4 -268 44q-48 20 -84 52q-88 -60 -196 -84q-76 -16 -148 -12q-40 0 -40 40zM176 716q-28 24 8 56l176 144l4 2t8 2l4 2l4 2h4h4h4l4 -2l4 -2h4l4 -2l4 -2l180 -144q28 -28 8 -56q-24 -32 -60 -8l-152 124l-156 -124q-36 -28 -56 8zM288 444q-8 -76 24 -140 q20 -52 76 -100l8 8q96 88 104 200q0 44 -4 68q-8 16 -8 24q-20 32 -48 52q-28 12 -60 8l-16 -8l-16 -8q-56 -36 -60 -104z" />
<glyph unicode="&#xed;" horiz-adv-x="596" d="M0 40q0 36 40 36q164 -8 210 82t54 210v50v50v44v44v2v2v2v2h2h2v2v2q0 4 4 8l2 2l2 2q0 4 4 4l2 2t6 2h4l2 2l2 2h4h2h2l2 -2l2 -2h2h2h4l2 -2t6 -2q0 -4 4 -10t8 -6v-4v-2v-2q4 0 4 -4v-44v-44v-50v-50q0 -120 48 -210t216 -82q36 0 36 -36t-36 -36q-132 -4 -202 40 t-102 116q-32 -72 -102 -116t-202 -40q-36 0 -36 36zM320 696l120 184q12 28 52 8q28 -16 8 -52l-116 -180q-28 -36 -52 -12q-28 20 -12 52z" />
<glyph unicode="&#xf3;" horiz-adv-x="860" d="M0 44q4 36 40 32q64 0 80 24q16 32 32 196v4v8q0 68 40 144q36 56 112 100q84 36 184 16q4 0 10 4t14 8q4 0 4 4h2h6q36 8 76 4q72 -12 120 -72q44 -56 60 -124t8 -116q-16 -88 -44 -136q-8 -8 -12 -16t-12 -16q108 -44 196 -32q32 4 40 -32q0 -40 -36 -40 q-132 -8 -256 52l-18 -12t-14 -8q-84 -36 -166 -36t-146 36q-28 8 -48 32q-16 8 -44 36q-12 12 -20 28q-20 -60 -24 -68q-36 -64 -148 -60q-36 0 -36 40zM224 292q4 -84 60 -136q4 -12 12 -18t20 -14q8 -8 16 -14t20 -10q48 -24 112 -28t128 28q-44 24 -72 60q-12 12 -26 28 t-26 32q-20 32 -32 64q-4 0 -4 2v2l-2 4t-2 8q-28 80 -16 152q4 20 20 52q-64 0 -96 -20q-52 -28 -80 -72q-28 -48 -32 -96v-8v-4v-12zM484 696l116 184q20 24 52 8q28 -16 8 -52l-116 -180q-24 -32 -52 -12q-32 20 -8 52zM488 440q-12 -52 8 -116q4 -4 4 -8q4 0 4 -4 q4 -16 28 -48q16 -32 40 -52q40 -44 84 -68q4 8 10 16t14 20q20 32 36 108q4 32 -8 88q-16 56 -44 92q-36 40 -76 48q-28 0 -44 -4h-4q-48 -20 -52 -72zM516 584h2h2h-4z" />
<glyph unicode="&#xf4;" horiz-adv-x="860" d="M0 44q4 36 40 32q68 0 80 24q16 32 32 196v4v8q0 68 40 144q44 60 112 100q84 36 184 16q4 0 10 4t14 8q4 0 4 4h2h6q36 8 76 4q64 -12 120 -72q48 -64 60 -124q16 -68 8 -116q-16 -88 -44 -136q-16 -24 -24 -32q96 -44 196 -32q32 0 40 -32q0 -40 -36 -40 q-132 -8 -256 52q-28 -20 -32 -20q-84 -36 -166 -36t-146 36q-16 4 -48 28q-16 12 -44 40q-12 12 -20 28q-20 -60 -24 -68q-36 -64 -148 -60q-36 0 -36 40zM224 292q4 -84 60 -136q4 -12 12 -18t20 -14q8 -8 16 -14t20 -10q48 -24 112 -28t128 28q-44 24 -72 60 q-20 20 -52 60q-20 32 -32 64q-4 0 -4 4l-2 4t-2 8q-28 80 -16 152q4 20 20 52q-52 0 -96 -20q-52 -28 -80 -72q-28 -48 -32 -96v-8v-4v-12zM284 660q-24 28 8 52l164 132q0 4 8 4v4h2h6h4h4h4h2h6v-4q8 0 8 -4h4l160 -132q32 -24 4 -52q-24 -32 -52 -4l-140 112l-140 -112 q-24 -24 -52 4zM488 440q-16 -56 8 -116q4 -4 4 -8l2 -2l2 -2q16 -32 28 -48q16 -32 40 -52q40 -44 84 -68q4 8 10 16t14 20q20 28 36 108q4 32 -8 88q-16 56 -44 92q-36 40 -76 48q-28 0 -44 -4h-4q-48 -20 -52 -72z" />
<glyph unicode="&#xf5;" horiz-adv-x="860" d="M0 44q4 36 40 32q68 0 80 24q16 32 32 196v4v8q0 68 40 144q44 60 112 100q84 36 184 16q4 0 10 4t14 8q4 0 4 4h2h6q36 8 76 4q64 -12 120 -72q48 -64 60 -124q16 -68 8 -116q-16 -88 -44 -136q-16 -24 -24 -32q96 -44 196 -32q32 0 40 -32q0 -40 -36 -40 q-132 -8 -256 52q-28 -20 -32 -20q-84 -36 -166 -36t-146 36q-16 4 -48 28q-16 12 -44 40q-12 12 -20 28q-20 -60 -24 -68q-36 -64 -148 -60q-36 0 -36 40zM224 292q4 -84 60 -136q4 -12 12 -18t20 -14q8 -8 16 -14t20 -10q48 -24 112 -28t128 28q-44 24 -72 60 q-20 20 -52 60q-20 32 -32 64q-4 0 -4 4l-2 4t-2 8q-28 80 -16 152q4 20 20 52q-52 0 -96 -20q-52 -28 -80 -72q-28 -48 -32 -96v-8v-4v-12zM228 732q44 52 100 52q40 4 140 -40q28 -20 46 -12t34 20q20 12 44 24t60 4q32 -8 28 -44q-12 -44 -44 -28q-8 0 -44 -16 q-28 -24 -64 -36t-96 20q-72 36 -100 36q-24 0 -44 -28q-28 -28 -56 -4q-28 20 -4 52zM488 440q-16 -56 8 -116q4 -4 4 -8l2 -2l2 -2q4 -16 28 -48q16 -32 40 -52q40 -44 84 -68q4 8 10 16t14 20q20 28 36 108q4 32 -8 88q-16 56 -44 92q-36 40 -76 48q-28 0 -44 -4h-4 q-48 -20 -52 -72zM516 584h2h2h-4z" />
<glyph unicode="&#xf7;" horiz-adv-x="1080" d="M172 376q0 40 40 40h664q40 0 40 -40t-40 -40h-664q-40 0 -40 40zM468 200q0 76 76 76t76 -76t-76 -76t-76 76zM468 556q0 76 76 76t76 -76t-76 -76t-76 76z" />
<glyph unicode="&#xfa;" horiz-adv-x="1040" d="M0 40q0 36 40 36q160 -8 206 78t50 202v42v46v24v28v8v12v8v10v14q0 32 36 40q40 0 40 -36v-8v-6v-2v-4v-10v-6q0 -96 8 -188t40 -164q0 -12 20 -36q20 -20 32 -24v-2t4 -2q40 -20 84 -20t88 24q36 16 64 60q16 32 20 52q12 32 20 108q0 12 2 26t6 26v52v56v10v14v12v16 v4v8q4 36 40 36t36 -36v-20v-16v-30v-26v-52v-48q0 -116 46 -202t210 -78q40 0 40 -36q0 -40 -36 -40q-136 0 -206 42t-94 118q-8 -12 -12 -20t-4 -12q-32 -68 -112 -104q-60 -24 -112 -20q-56 0 -104 24q-48 32 -64 52q-12 12 -36 44q-8 24 -16 36q-28 -76 -98 -118 t-202 -38q-36 0 -36 36zM372 516v16v-8v-8zM476 696l116 184q20 28 52 8q32 -16 12 -52l-116 -180q-28 -36 -52 -12q-36 24 -12 52z" />
<glyph unicode="&#xfc;" horiz-adv-x="1148" d="M0 44q0 40 44 40q176 -8 226 86t54 222q4 32 4 96v28v28v10v14v8v10v18q-8 40 36 40q44 4 44 -40v-4v-8v-4v-14v-6q0 -108 8 -208t44 -180q8 -16 24 -40q12 -12 36 -28q48 -24 96 -24q52 0 96 24q36 20 72 68q8 16 24 56q12 68 20 120q4 20 4 60q4 36 4 116v10v18v12v16 v4v4v8q4 40 44 40t40 -40v-4v-20v-16v-36v-28v-56v-52q0 -128 52 -224t232 -84q40 0 40 -40q4 -44 -40 -44q-148 0 -224 46t-108 130q-8 -24 -16 -36q-40 -80 -124 -116q-60 -24 -120 -20q-56 0 -116 28q-52 24 -72 56q-12 8 -20 22t-16 26q-4 8 -10 18t-6 22 q-36 -84 -112 -130t-220 -42q-40 0 -40 40zM408 568v20v-12v-8zM416 772q0 72 72 72q68 0 68 -72q0 -68 -68 -68q-72 0 -72 68zM688 772q0 72 72 72q68 0 68 -72q0 -68 -68 -68q-72 0 -72 68z" />
<glyph unicode="&#x2000;" horiz-adv-x="906" />
<glyph unicode="&#x2001;" horiz-adv-x="1812" />
<glyph unicode="&#x2002;" horiz-adv-x="906" />
<glyph unicode="&#x2003;" horiz-adv-x="1812" />
<glyph unicode="&#x2004;" horiz-adv-x="604" />
<glyph unicode="&#x2005;" horiz-adv-x="453" />
<glyph unicode="&#x2006;" horiz-adv-x="302" />
<glyph unicode="&#x2007;" horiz-adv-x="302" />
<glyph unicode="&#x2008;" horiz-adv-x="226" />
<glyph unicode="&#x2009;" horiz-adv-x="362" />
<glyph unicode="&#x200a;" horiz-adv-x="100" />
<glyph unicode="&#x2010;" horiz-adv-x="880" d="M172 408q0 40 36 40h500q36 0 36 -40t-36 -40h-500q-36 0 -36 40z" />
<glyph unicode="&#x2011;" horiz-adv-x="880" d="M172 408q0 40 36 40h500q36 0 36 -40t-36 -40h-500q-36 0 -36 40z" />
<glyph unicode="&#x2012;" horiz-adv-x="880" d="M172 408q0 40 36 40h500q36 0 36 -40t-36 -40h-500q-36 0 -36 40z" />
<glyph unicode="&#x2013;" horiz-adv-x="1332" d="M172 408q0 40 64 40h896q64 0 64 -40t-64 -40h-896q-64 0 -64 40z" />
<glyph unicode="&#x2014;" horiz-adv-x="2356" d="M172 408q0 40 129 40h1790q129 0 129 -40t-129 -40h-1790q-129 0 -129 40z" />
<glyph unicode="&#x2018;" horiz-adv-x="600" d="M284 860q0 28 16 44q20 20 44 20t44 -20t20 -44t-20 -44q-4 -4 -10 -8l-6 -4v-18v-14q0 -28 -2 -58t-18 -54q-16 -20 -36 -4q-24 8 -8 32q12 16 12 38v46v14v18q-8 0 -12 4l-8 8q-16 16 -16 44z" />
<glyph unicode="&#x2019;" horiz-adv-x="600" d="M284 860q0 28 16 44q20 20 44 20t44 -20t20 -44t-20 -44q-4 -4 -10 -8l-6 -4v-18v-14q0 -28 -2 -58t-18 -54q-16 -20 -36 -4q-24 8 -8 32q12 16 12 38v46v14v18q-8 0 -12 4l-8 8q-16 16 -16 44z" />
<glyph unicode="&#x201c;" horiz-adv-x="1400" d="M284 852v4v2v2q0 60 60 60t60 -60v-1v-3v-4q0 -44 -32 -56v-14v-10q0 -28 -4 -58t-20 -54q-8 -24 -32 -4q-24 8 -8 32q12 24 12 84v10v14q-36 12 -36 56zM428 860q0 60 60 60q64 0 64 -60q0 -36 -36 -56v-16v-16q4 -72 -20 -112q-16 -20 -36 -4q-24 8 -8 32t16 84v32 q-40 12 -40 56z" />
<glyph unicode="&#x201d;" horiz-adv-x="1400" d="M284 860q0 60 60 60t60 -60q0 -44 -36 -56v-18v-14v-46t12 -38q16 -24 -8 -32q-24 -16 -36 4q-20 24 -20 54v58v16v16q-32 16 -32 56zM428 852v4v2v2q0 60 60 60q64 0 64 -60v-2v-2v-4q0 -44 -36 -56v-14v-10q-8 -56 12 -84q16 -24 -8 -32q-24 -16 -36 4q-28 40 -20 112 v10v14q-36 12 -36 56z" />
<glyph unicode="&#x2022;" horiz-adv-x="1120" d="M88 408q8 32 52 28l184 -48l-96 164q-20 32 12 56q36 20 60 -16l92 -164l52 184q8 40 48 28q44 -8 28 -48l-48 -184l164 92q32 20 56 -12q20 -36 -16 -56l-164 -96l184 -48q40 -16 28 -52q-8 -40 -48 -28l-184 48l96 -164q12 -40 -16 -56q-36 -24 -56 16l-96 164 l-48 -184q-16 -32 -52 -28q-40 4 -28 48l52 184l-168 -92q-36 -24 -56 12q-20 40 16 56l164 96l-184 48q-36 12 -28 52z" />
<glyph unicode="&#x202f;" horiz-adv-x="362" />
<glyph unicode="&#x205f;" horiz-adv-x="453" />
<glyph unicode="&#x25fc;" horiz-adv-x="600" d="M0 0v600h600v-600h-600z" />
</font>
</defs>
</svg>
